<svg width="221" height="118" viewBox="0 0 221 118" fill="none" xmlns="http://www.w3.org/2000/svg">
<g clip-path="url(#clip0_15709_1583)">
<path d="M124.882 78.8616H115.961V116.789H124.882V78.8616Z" fill="white"/>
<path d="M143.22 95.5411C142.55 95.5453 141.905 95.2834 141.427 94.8128C140.95 94.3422 140.678 93.7012 140.672 93.0305V83.4994C140.766 79.9499 146.045 79.942 146.139 83.4994V90.7953H150.773V85.7818C150.372 76.1564 136.439 76.1564 136.038 85.7818V94.6596C136.033 95.3415 136.218 96.0113 136.57 96.5948C136.923 97.1783 137.43 97.6526 138.036 97.9652C137.405 98.256 136.876 98.7311 136.519 99.3281C136.163 99.925 135.995 100.616 136.038 101.31V110.086C136.439 119.719 150.379 119.719 150.773 110.086V100.13H153.92V95.5411H143.22ZM143.409 115.052C142.689 115.056 141.996 114.774 141.483 114.268C140.969 113.762 140.678 113.073 140.672 112.352V102.64C140.675 102.307 140.743 101.978 140.873 101.672C141.004 101.366 141.193 101.088 141.43 100.855C141.668 100.622 141.949 100.438 142.257 100.313C142.566 100.189 142.896 100.126 143.228 100.13H146.139V112.36C146.133 113.079 145.842 113.766 145.33 114.27C144.819 114.775 144.128 115.056 143.409 115.052Z" fill="white"/>
<path d="M9.30805 116.789C9.30805 99.9937 8.21454 77.1618 16.2074 63.8451C17.1672 62.1451 18.5675 62.1766 19.5588 63.8923C26.2457 75.6034 26.7649 94.7914 26.3952 116.789H35.6783V100.812C35.6783 78.7752 26.6391 67.253 21.4075 62.4127C20.4659 61.5245 19.2234 61.0253 17.9293 61.0151C16.6352 61.0048 15.385 61.4844 14.4295 62.3576C-0.722387 76.5243 -0.0300845 98.034 0.0171175 116.789H9.30805Z" fill="white"/>
<path d="M56.2058 116.793V90.5613C56.2058 86.1697 59.5493 82.6123 63.6795 82.6123C67.8097 82.6123 71.1296 86.1618 71.1296 90.5456V116.793H80.5149V90.5613C80.5149 86.1697 83.8584 82.6123 87.9807 82.6123C92.103 82.6123 95.4386 86.1618 95.4386 90.5456V116.793H104.816V96.4641C104.895 80.6447 86.3994 72.3493 75.8183 84.0919C65.245 72.3493 46.7497 80.6525 46.8362 96.4641V116.793H56.2058Z" fill="white"/>
<path d="M172.37 116.791V72.9132C172.37 70.9302 173.157 69.0285 174.559 67.6263C175.96 66.2241 177.861 65.4364 179.843 65.4364C181.825 65.4364 183.726 66.2241 185.128 67.6263C186.529 69.0285 187.317 70.9302 187.317 72.9132V116.806H196.702V72.9132C196.702 70.9302 197.49 69.0285 198.891 67.6263C200.293 66.2241 202.194 65.4364 204.176 65.4364C206.158 65.4364 208.059 66.2241 209.461 67.6263C210.862 69.0285 211.65 70.9302 211.65 72.9132V116.806H221.027V78.7688C221.106 63.0831 202.61 54.8586 192.037 66.4989C181.456 54.8507 162.968 63.0831 163.047 78.7688V116.791H172.37Z" fill="white"/>
<path d="M17.8435 92.2543C19.69 92.2543 21.187 90.7567 21.187 88.9094C21.187 87.062 19.69 85.5645 17.8435 85.5645C15.9969 85.5645 14.5 87.062 14.5 88.9094C14.5 90.7567 15.9969 92.2543 17.8435 92.2543Z" fill="#8DC63F"/>
<path d="M120.39 72.1751C123.471 72.1751 125.968 69.6768 125.968 66.595C125.968 63.5132 123.471 61.0149 120.39 61.0149C117.31 61.0149 114.812 63.5132 114.812 66.595C114.812 69.6768 117.31 72.1751 120.39 72.1751Z" fill="#5056A5"/>
<path d="M133.015 47.5913C136.708 47.5913 139.702 44.5962 139.702 40.9015C139.702 37.2068 136.708 34.2117 133.015 34.2117C129.322 34.2117 126.328 37.2068 126.328 40.9015C126.328 44.5962 129.322 47.5913 133.015 47.5913Z" fill="#996598"/>
<path d="M157.851 27.6031C162.161 27.6031 165.655 24.1076 165.655 19.7957C165.655 15.4838 162.161 11.9883 157.851 11.9883C153.541 11.9883 150.047 15.4838 150.047 19.7957C150.047 24.1076 153.541 27.6031 157.851 27.6031Z" fill="#D24D70"/>
<path d="M192.062 17.8541C196.989 17.8541 200.983 13.8583 200.983 8.92915C200.983 4.00001 196.989 0.00415039 192.062 0.00415039C187.135 0.00415039 183.141 4.00001 183.141 8.92915C183.141 13.8583 187.135 17.8541 192.062 17.8541Z" fill="#ED1B2F"/>
<path d="M32.712 63.8989C34.6628 63.8989 36.2443 62.3168 36.2443 60.3651C36.2443 58.4134 34.6628 56.8313 32.712 56.8313C30.7611 56.8313 29.1797 58.4134 29.1797 60.3651C29.1797 62.3168 30.7611 63.8989 32.712 63.8989Z" fill="#35AA94"/>
<path d="M52.9333 50.2596C55.0883 50.2596 56.8353 48.5118 56.8353 46.3559C56.8353 44.1999 55.0883 42.4521 52.9333 42.4521C50.7783 42.4521 49.0312 44.1999 49.0312 46.3559C49.0312 48.5118 50.7783 50.2596 52.9333 50.2596Z" fill="#1EA0CA"/>
<path d="M77.3668 46.4196C79.8304 46.4196 81.8274 44.4217 81.8274 41.9571C81.8274 39.4926 79.8304 37.4946 77.3668 37.4946C74.9033 37.4946 72.9062 39.4926 72.9062 41.9571C72.9062 44.4217 74.9033 46.4196 77.3668 46.4196Z" fill="#0088CB"/>
<path d="M102.035 53.4703C104.807 53.4703 107.054 51.2222 107.054 48.449C107.054 45.6758 104.807 43.4277 102.035 43.4277C99.2628 43.4277 97.0156 45.6758 97.0156 48.449C97.0156 51.2222 99.2628 53.4703 102.035 53.4703Z" fill="#3777BC"/>
</g>
<defs>
<clipPath id="clip0_15709_1583">
<rect width="221" height="117.3" fill="white"/>
</clipPath>
</defs>
</svg>
