<svg width="95" height="90" viewBox="0 0 95 90" fill="none" xmlns="http://www.w3.org/2000/svg">
<circle cx="24.95" cy="30.7535" r="24.951" fill="#F4475C"/>
<path d="M49.7383 33.7272C53.0214 33.7272 56.0788 34.9087 58.4385 37.0543H58.4395L60.7227 39.1354L62.7793 37.1998L63.1445 36.8707C66.9743 33.5519 72.7181 32.8073 77.2441 35.0758H77.2432L83.4561 38.1832L83.9092 38.3932C84.9826 38.8523 86.1543 39.0943 87.3203 39.0944H91.4961C92.6509 39.0944 93.5887 40.0314 93.5889 41.1862C93.5889 42.3411 92.651 43.278 91.4961 43.278H87.3203C85.4654 43.2779 83.6047 42.8676 81.918 42.0856L81.583 41.9244L75.3701 38.817L75.3691 38.816C72.3352 37.2945 68.4568 37.7995 65.8906 40.025L65.6465 40.2457L53.0342 52.1198C51.7957 53.3643 51.6155 55.2605 52.498 56.4869H52.499C53.0891 57.3047 53.9407 57.7887 54.9102 57.8688H54.9111C55.8715 57.9392 56.8196 57.5991 57.4971 56.9196L57.5029 56.9137L57.5098 56.9078L68.6875 46.2076C69.5217 45.408 70.8473 45.4392 71.6455 46.275L71.7852 46.4362C72.4338 47.27 72.3631 48.4809 71.5781 49.2311L71.5791 49.2321L66.5459 54.0485L86.2197 68.8033C86.9262 68.6816 87.6447 68.6149 88.3672 68.6149H91.499C92.6538 68.6149 93.5907 69.5519 93.5908 70.7067C93.5908 71.8616 92.6539 72.7985 91.499 72.7985H88.3672C86.6271 72.7985 84.898 73.3377 83.4648 74.3239L83.1816 74.527L66.833 86.7867L66.832 86.7858C65.0134 88.1953 62.8289 88.9039 60.6396 88.9039C58.4507 88.9039 56.2497 88.1933 54.4199 86.7701L38.0898 74.527H38.0889C36.6036 73.4119 34.7595 72.7985 32.9033 72.7985H29.7744C28.6195 72.7984 27.6826 71.8616 27.6826 70.7067C27.6828 69.5519 28.6196 68.6149 29.7744 68.6149H32.9062C35.6659 68.6149 38.395 69.5233 40.5996 71.1774L56.9482 83.4371L56.9541 83.441L56.96 83.4459C59.1308 85.1395 62.1413 85.1321 64.2969 83.4606L64.3066 83.4528L80.6738 71.1774H80.6748L81.1426 70.8434C81.2888 70.7441 81.437 70.6481 81.5869 70.5553L63.4834 56.9811L60.4365 59.8981L60.4375 59.899C59.0503 61.2863 57.1572 62.064 55.1865 62.0641C52.7942 62.0641 50.6814 60.8919 49.3594 59.2633L49.1055 58.9323C46.9858 55.9894 47.4569 51.7812 50.1152 49.1256L50.1309 49.11L57.6699 42.0104L55.623 40.1471C53.0009 37.7612 48.8692 37.3285 45.9014 38.816L45.9004 38.817L39.6885 41.9244H39.6875C37.914 42.8111 35.9315 43.278 33.9502 43.278H29.7744C28.6195 43.2779 27.6826 42.3411 27.6826 41.1862C27.6827 40.0314 28.6196 39.0944 29.7744 39.0944H33.9502C35.2826 39.0944 36.6222 38.778 37.8145 38.1832L44.0273 35.0758C45.7884 34.1912 47.7632 33.7272 49.7383 33.7272Z" fill="#2A2B6B" stroke="#2A2B6B" stroke-width="1.5"/>
</svg>
