<svg width="81" height="77" viewBox="0 0 81 77" fill="none" xmlns="http://www.w3.org/2000/svg">
<circle cx="21.6096" cy="27" r="21.5" fill="#F4475C"/>
<path d="M63.6079 44C63.6079 56.9787 53.0866 67.5 40.1079 67.5C27.1292 67.5 16.6079 56.9787 16.6079 44C16.6079 31.0213 27.1292 20.5 40.1079 20.5C53.0866 20.5 63.6079 31.0213 63.6079 44Z" stroke="#2A2B6B" stroke-width="4.08602" stroke-linecap="round" stroke-linejoin="round"/>
<path d="M55.1086 44C55.1086 52.2843 48.3929 59 40.1086 59C31.8244 59 25.1086 52.2843 25.1086 44C25.1086 35.7157 31.8244 29 40.1086 29C48.3929 29 55.1086 35.7157 55.1086 44Z" stroke="#2A2B6B" stroke-width="4.08602" stroke-linecap="round" stroke-linejoin="round"/>
<path d="M46.6079 44C46.6079 47.5899 43.6978 50.5 40.1079 50.5C36.5181 50.5 33.6079 47.5899 33.6079 44C33.6079 40.4101 36.5181 37.5 40.1079 37.5C43.6978 37.5 46.6079 40.4101 46.6079 44Z" stroke="#2A2B6B" stroke-width="4.08602" stroke-linecap="round" stroke-linejoin="round"/>
</svg>
