<svg width="81" height="77" viewBox="0 0 81 77" fill="none" xmlns="http://www.w3.org/2000/svg">
<circle cx="21.6094" cy="27" r="21.5" fill="#F4475C"/>
<path d="M59.0886 49.9304C60.2136 48.8116 61.8044 48.2234 63.4451 48.3611H63.4441C65.0813 48.4931 66.5726 49.3409 67.5427 50.6873H67.5437C69.0802 52.8196 68.8002 55.8475 66.9656 57.8464L66.783 58.0369L66.3601 58.4587L66.3435 58.4255L55.3728 68.2791H55.3718C51.3099 71.9223 46.0698 73.9323 40.615 73.9324H19.6375C18.8302 73.9323 18.1755 73.2767 18.1755 72.4695C18.1757 71.6624 18.8303 71.0076 19.6375 71.0076H40.615C45.3477 71.0075 49.8943 69.2666 53.4187 66.1033L64.7537 55.9275C65.7344 54.9468 65.8982 53.4064 65.1697 52.3933V52.3923C64.6907 51.7294 63.9976 51.336 63.2078 51.2722V51.2712C62.4287 51.2191 61.6587 51.494 61.1062 52.0447L61.0925 52.0583L52.4724 59.9128C51.462 60.9263 50.0629 61.5583 48.5173 61.5583H38.2039C37.3966 61.5583 36.741 60.9027 36.741 60.0955C36.7411 59.2884 37.3967 58.6335 38.2039 58.6335H48.5173C49.1381 58.6335 49.71 58.419 50.1638 58.0603L50.3503 57.8982C50.3775 57.8682 50.4068 57.8356 50.4402 57.8044L50.448 57.7976L50.4675 57.7791C50.909 57.3039 51.1804 56.6692 51.1804 55.9705C51.1804 54.5027 49.9851 53.3076 48.5173 53.3074H36.322C31.2035 53.3075 26.3919 55.3001 22.7703 58.9197L20.7009 61.0984L20.7019 61.0994C20.1457 61.6967 19.2137 61.7108 18.6326 61.156V61.155C18.0458 60.6003 18.0244 59.6752 18.5789 59.0916L20.6765 56.8826L20.6833 56.8748L20.989 57.1794L20.6843 56.8748C24.8757 52.6834 30.4239 50.3846 36.322 50.3845H48.5173C51.1326 50.3847 53.3326 52.1901 53.9382 54.6199L59.0886 49.9304ZM32.3015 23.573H32.3074L32.9207 23.6228C35.9505 23.9013 38.4299 24.6333 40.3806 25.9031C42.1748 27.071 43.4955 28.6793 44.3894 30.7527C45.284 28.6792 46.6058 27.0711 48.4001 25.9031C50.4808 24.5488 53.1624 23.8061 56.4734 23.573H56.4832L56.6726 23.5681C57.619 23.5692 58.5499 23.9202 59.2419 24.6121L59.3748 24.7527C60.0186 25.4695 60.3516 26.4185 60.281 27.3845C59.9631 31.8908 58.7001 35.233 56.2419 37.4734C53.8601 39.6439 50.4256 40.7131 45.8513 40.8953V43.5906C45.8512 44.3977 45.1966 45.0525 44.3894 45.0525C43.5823 45.0524 42.9276 44.3976 42.9275 43.5906V40.8953C38.3531 40.713 34.9186 39.6434 32.5369 37.4724C30.2322 35.3716 28.9786 32.3025 28.5691 28.2126L28.4978 27.3816C28.4249 26.354 28.8066 25.3456 29.5369 24.613L29.6775 24.4792C30.3956 23.833 31.3313 23.5186 32.3015 23.573ZM32.0544 26.491C31.933 26.491 31.8107 26.5283 31.7048 26.5994L31.6042 26.6824C31.5029 26.7839 31.4401 26.9112 31.4207 27.0417L31.4158 27.1726V27.1746L31.4753 27.8787C31.8132 31.3286 32.7925 33.7248 34.5398 35.3152C36.3382 36.9521 39.0248 37.802 42.8943 37.9714C42.7257 34.1021 41.8759 31.4146 40.239 29.616C38.5426 27.752 35.9291 26.7626 32.0994 26.4939V26.4929C32.0937 26.4927 32.0884 26.4932 32.0837 26.4929C32.0725 26.4922 32.0619 26.4914 32.0564 26.491C32.0497 26.4904 32.0476 26.4901 32.0466 26.49C32.0473 26.49 32.0502 26.491 32.0544 26.491ZM56.7166 26.488L56.7029 26.49L56.6824 26.4919C52.8513 26.7616 50.2382 27.7513 48.5417 29.615C46.9049 31.4134 46.054 34.1001 45.8845 37.9695C49.7541 37.801 52.4413 36.9511 54.24 35.3142C56.1041 33.6178 57.0944 31.0045 57.363 27.1746V27.1726L57.3582 27.0398C57.3451 26.952 57.3126 26.8663 57.2625 26.7888L57.1746 26.6794C57.0488 26.5538 56.8872 26.488 56.7244 26.488C56.7212 26.488 56.7187 26.488 56.7166 26.488ZM56.7107 26.488C56.708 26.4881 56.7068 26.489 56.7068 26.489C56.7073 26.489 56.7103 26.4885 56.7146 26.488C56.7132 26.488 56.7119 26.488 56.7107 26.488Z" fill="#2A2B6B" stroke="#2A2B6B" stroke-width="0.861688"/>
</svg>
