<svg width="48" height="47" viewBox="0 0 48 47" fill="none" xmlns="http://www.w3.org/2000/svg">
<circle cx="9.65142" cy="9.33721" r="8.83721" fill="#ED1B2F"/>
<circle cx="9.65142" cy="9.33721" r="8.83721" fill="#ED1B2F"/>
<path d="M12.3843 28.5169L5.00024 34.6107L13.8375 45.9506L14.5415 45.3102C16.7573 43.2947 19.645 42.1778 22.6404 42.1778H28.6815C32.2289 42.1778 35.6347 40.7856 38.1665 38.3007L45.5327 31.071C46.8949 29.734 46.8949 27.5395 45.5327 26.2025C44.206 24.9004 42.081 24.9004 40.7543 26.2025L35.9816 30.8868C34.07 32.763 31.4984 33.8142 28.8198 33.8142H23.3204C23.0631 33.8142 22.8545 33.6056 22.8545 33.3484C22.8545 33.0911 23.0631 32.8825 23.3204 32.8825H30.4178C32.0675 32.8825 33.4048 31.5452 33.4048 29.8956C33.4048 28.2459 32.0675 26.9086 30.4178 26.9086H16.86C15.2266 26.9086 13.6441 27.4772 12.3843 28.5169Z" stroke="#2A2B6B" stroke-width="1.78605" stroke-linecap="round" stroke-linejoin="round"/>
<path d="M25.0486 23.0248C25.3585 17.8616 29.364 7.53102 42.9069 7.51481C42.5282 13.8255 38.4264 25.7624 25.0486 23.0248Z" fill="#2A2B6B" stroke="#2A2B6B" stroke-width="1.80564"/>
<path d="M23.9133 22.9941C23.7046 19.5171 21.0071 12.5603 11.8871 12.5494C12.1421 16.7992 14.9044 24.8377 23.9133 22.9941Z" fill="#2A2B6B" stroke="#2A2B6B" stroke-width="1.80564"/>
</svg>
