<svg width="81" height="77" viewBox="0 0 81 77" fill="none" xmlns="http://www.w3.org/2000/svg">
<circle cx="21.6091" cy="27.0001" r="21.5" fill="#F4475C"/>
<path d="M60.9743 66.1281V61.2136C60.9743 58.6068 59.9323 56.1067 58.0775 54.2634C56.2228 52.4201 53.7072 51.3845 51.0841 51.3845H31.3039C28.6809 51.3845 26.1653 52.4201 24.3106 54.2634C22.4558 56.1067 21.4138 58.6068 21.4138 61.2136V66.1281" stroke="#2A2B6B" stroke-width="4.22222" stroke-linecap="round" stroke-linejoin="round"/>
<path d="M41.1906 46.1496C46.6528 46.1496 51.0808 41.749 51.0808 36.3205C51.0808 30.8921 46.6528 26.4915 41.1906 26.4915C35.7285 26.4915 31.3005 30.8921 31.3005 36.3205C31.3005 41.749 35.7285 46.1496 41.1906 46.1496Z" stroke="#2A2B6B" stroke-width="4.22222" stroke-linecap="round" stroke-linejoin="round"/>
<path d="M75.8058 66.1282V61.2137C75.8041 59.0359 75.0748 56.9203 73.7322 55.1991C72.3897 53.4779 70.5099 52.2486 68.3882 51.7041" stroke="#2A2B6B" stroke-width="4.22222" stroke-linecap="round" stroke-linejoin="round"/>
<path d="M58.5002 26.8109C60.6276 27.3523 62.5132 28.5819 63.8598 30.3059C65.2063 32.0299 65.9372 34.1503 65.9372 36.3328C65.9372 38.5153 65.2063 40.6357 63.8598 42.3597C62.5132 44.0838 60.6276 45.3134 58.5002 45.8547" stroke="#2A2B6B" stroke-width="4.22222" stroke-linecap="round" stroke-linejoin="round"/>
</svg>
