<svg width="96" height="99" viewBox="0 0 96 99" fill="none" xmlns="http://www.w3.org/2000/svg">
<circle cx="19.9238" cy="19.5" r="19" fill="#ED1B2F"/>
<path d="M52.4733 88.0655C53.131 77.1067 61.6327 55.1804 90.377 55.146C89.5733 68.5403 80.8673 93.8761 52.4733 88.0655Z" fill="#2A2B6B" stroke="#2A2B6B" stroke-width="3.84" stroke-linecap="round" stroke-linejoin="round"/>
<path d="M51.9447 88.0655C51.2869 77.1067 42.7853 55.1804 14.041 55.146C14.8447 68.5403 23.5507 93.8761 51.9447 88.0655Z" stroke="#2A2B6B" stroke-width="3.84" stroke-linecap="round" stroke-linejoin="round"/>
<rect x="50.377" y="47.5" width="4" height="42" fill="#2A2B6B"/>
<path d="M37.877 40.5C37.877 31.8272 45.1348 22.1825 52.9966 16.9998M52.9966 16.9998C59.6386 12.6213 67.0685 9.99984 71.877 9.99984V28.2498C71.877 38.8813 63.2584 47.4998 52.627 47.4998V47.4998C41.9955 47.4998 33.377 38.8813 33.377 28.2498V9.99984C37.4567 9.66651 47.0924 10.5998 52.9966 16.9998Z" stroke="#2A2B6B" stroke-width="3.84" stroke-linecap="round" stroke-linejoin="round"/>
<path d="M42.377 11C42.377 8 50.177 2.5 53.377 2.5C56.377 2.5 63.377 8.3 63.377 11.5" stroke="#2A2B6B" stroke-width="3.84" stroke-linecap="round" stroke-linejoin="round"/>
</svg>
