<svg width="91" height="67" viewBox="0 0 91 67" fill="none" xmlns="http://www.w3.org/2000/svg">
<g clip-path="url(#clip0_1_1370)">
<path d="M51.4252 32.8359H47.75V48.4468H51.4252V32.8359Z" fill="#3D408A"/>
<path d="M58.968 39.7013C58.3879 39.7013 57.9179 39.2363 57.9179 38.6663V34.7461C57.9579 33.286 60.128 33.281 60.168 34.7461V37.7462H62.0781V35.6811C61.9131 31.7209 56.1728 31.7209 56.0078 35.6811V39.3363C56.0128 39.5913 56.0978 40.3514 56.8329 40.6964C56.4578 40.8764 56.0078 41.2564 56.0078 42.0715V45.6867C56.1728 49.6469 61.9131 49.6469 62.0781 45.6867V41.5914H63.3582V39.7013H58.968ZM59.048 47.7318C58.4279 47.7318 57.9229 47.2317 57.9229 46.6217V42.6265C57.9229 42.0565 58.3929 41.5914 58.973 41.5914H60.173V46.6267C60.173 47.2367 59.668 47.7368 59.048 47.7368" fill="#3D408A"/>
<path d="M3.83226 48.4479C3.82726 41.5325 3.38224 32.137 6.67742 26.6567C7.07244 25.9567 7.66247 25.9717 8.05749 26.6767C10.8126 31.497 11.0277 39.3924 10.8726 48.4479H14.6979V41.8725C14.6979 32.817 10.9777 28.0618 8.82254 26.0667C8.00749 25.3116 6.76742 25.2966 5.94738 26.0467C-0.292965 31.862 -0.0129499 40.7275 0.00705122 48.4479H3.83226Z" fill="#3D408A"/>
<path d="M23.1416 48.4454V37.6498C23.1416 35.8447 24.5217 34.3796 26.2168 34.3796C27.9118 34.3796 29.2869 35.8397 29.2869 37.6448V48.4504H33.1471V37.6548C33.1471 35.8497 34.5272 34.3847 36.2223 34.3847C37.9174 34.3847 39.2925 35.8447 39.2925 37.6498V48.4554H43.1527V40.09C43.1877 33.5796 35.5673 30.1644 31.217 34.9997C26.8618 30.1644 19.2464 33.5846 19.2814 40.09V48.4554H23.1416V48.4454Z" fill="#3D408A"/>
<path d="M70.9803 48.4451V30.3841C70.9803 28.594 72.3604 27.1389 74.0555 27.1389C75.7506 27.1389 77.1257 28.589 77.1257 30.3741V48.4401H80.9909V30.3791C80.9909 28.589 82.371 27.1339 84.0661 27.1339C85.7611 27.1339 87.1362 28.584 87.1362 30.3691V48.4351H90.9964V32.7843C91.0314 26.3289 83.416 22.9437 79.0608 27.734C74.7055 22.9387 67.0901 26.3289 67.1251 32.7843V48.4351H70.9853L70.9803 48.4451Z" fill="#3D408A"/>
<path d="M8.32388 37.945C7.78385 38.485 6.9138 38.485 6.37377 37.945C5.83374 37.4049 5.83374 36.5349 6.37377 35.9949C6.9138 35.4548 7.78385 35.4548 8.32388 35.9949C8.86391 36.5349 8.86391 37.4049 8.32388 37.945Z" fill="#85B658"/>
<path d="M47.9447 26.1635C48.8398 25.2684 50.2949 25.2684 51.1899 26.1635C52.085 27.0585 52.085 28.5136 51.1899 29.4087C50.2949 30.3037 48.8398 30.3037 47.9447 29.4087C47.0497 28.5136 47.0497 27.0585 47.9447 26.1635Z" fill="#3F469D"/>
<path d="M52.8219 15.2633C53.897 14.1883 55.6421 14.1883 56.7171 15.2633C57.7922 16.3384 57.7922 18.0835 56.7171 19.1585C55.6421 20.2336 53.897 20.2336 52.8219 19.1585C51.7469 18.0835 51.7469 16.3384 52.8219 15.2633Z" fill="#AB7BA5"/>
<path d="M62.7226 6.2538C63.9776 4.99873 66.0127 4.99873 67.2678 6.2538C68.5229 7.50887 68.5229 9.54398 67.2678 10.7991C66.0127 12.0541 63.9776 12.0541 62.7226 10.7991C61.4675 9.54398 61.4675 7.50887 62.7226 6.2538Z" fill="#DF6580"/>
<path d="M76.4826 1.45522C77.9176 0.0201365 80.2428 0.0201365 81.6778 1.45522C83.1129 2.89029 83.1129 5.21542 81.6778 6.6505C80.2428 8.08558 77.9176 8.08558 76.4826 6.6505C75.0475 5.21542 75.0475 2.89029 76.4826 1.45522Z" fill="#CB1B3C"/>
<path d="M14.5033 26.2533C13.9332 26.8233 13.0132 26.8233 12.4431 26.2533C11.8731 25.6832 11.8731 24.7632 12.4431 24.1931C13.0132 23.6231 13.9332 23.6231 14.5033 24.1931C15.0733 24.7632 15.0733 25.6832 14.5033 26.2533Z" fill="#27B462"/>
<path d="M20.6563 18.3163C21.2863 17.6862 22.3014 17.6862 22.9314 18.3163C23.5564 18.9463 23.5564 19.9614 22.9314 20.5864C22.3014 21.2164 21.2863 21.2164 20.6563 20.5864C20.0312 19.9564 20.0312 18.9413 20.6563 18.3163Z" fill="#00B2D4"/>
<path d="M30.5519 16.3488C31.2669 15.6337 32.432 15.6337 33.147 16.3488C33.8621 17.0638 33.8621 18.2289 33.147 18.9439C32.432 19.659 31.2669 19.659 30.5519 18.9439C29.8369 18.2289 29.8369 17.0638 30.5519 16.3488Z" fill="#0098D2"/>
<path d="M40.5569 18.8655C41.362 18.0605 42.672 18.0605 43.4771 18.8655C44.2821 19.6705 44.2821 20.9806 43.4771 21.7857C42.672 22.5907 41.362 22.5907 40.5569 21.7857C39.7519 20.9806 39.7519 19.6705 40.5569 18.8655Z" fill="#4189C5"/>
<path d="M60.3003 58.5534C60.4053 58.6535 60.4553 58.7835 60.4553 58.9435C60.4553 59.1035 60.4053 59.2335 60.3003 59.3285C60.1953 59.4235 60.0603 59.4735 59.8953 59.4735H58.4502V64.3588C58.4502 64.5188 58.3902 64.6538 58.2752 64.7638C58.1602 64.8738 58.0151 64.9288 57.8451 64.9288C57.6751 64.9288 57.5301 64.8738 57.4201 64.7638C57.3101 64.6538 57.2551 64.5188 57.2551 64.3588V59.4735H55.81C55.645 59.4735 55.51 59.4235 55.405 59.3235C55.3 59.2235 55.25 59.0935 55.25 58.9335C55.25 58.7735 55.305 58.6485 55.41 58.5484C55.515 58.4484 55.65 58.3984 55.81 58.3984H59.8953C60.0603 58.3984 60.1953 58.4484 60.3003 58.5484V58.5534Z" fill="#3D408A"/>
<path d="M64.3433 60.0066C64.4683 60.1116 64.5333 60.2366 64.5333 60.3816C64.5333 60.5766 64.4833 60.7166 64.3883 60.8166C64.2883 60.9116 64.1733 60.9616 64.0383 60.9616C63.9483 60.9616 63.8433 60.9416 63.7233 60.8966C63.7033 60.8916 63.6633 60.8766 63.5982 60.8616C63.5332 60.8416 63.4632 60.8316 63.3932 60.8316C63.2332 60.8316 63.0832 60.8816 62.9332 60.9816C62.7882 61.0816 62.6632 61.2316 62.5682 61.4316C62.4732 61.6317 62.4282 61.8767 62.4282 62.1567V64.3668C62.4282 64.5268 62.3782 64.6618 62.2732 64.7718C62.1682 64.8818 62.0382 64.9368 61.8782 64.9368C61.7181 64.9368 61.5881 64.8818 61.4831 64.7718C61.3781 64.6618 61.3281 64.5268 61.3281 64.3668V60.5166C61.3281 60.3566 61.3781 60.2216 61.4831 60.1116C61.5881 60.0016 61.7181 59.9466 61.8782 59.9466C62.0382 59.9466 62.1682 60.0016 62.2732 60.1116C62.3782 60.2216 62.4282 60.3566 62.4282 60.5166V60.6366C62.5682 60.3816 62.7732 60.1866 63.0332 60.0516C63.2982 59.9166 63.5782 59.8516 63.8783 59.8516C64.0633 59.8516 64.2183 59.9066 64.3433 60.0116V60.0066Z" fill="#3D408A"/>
<path d="M69.6943 60.0088C69.7993 60.1138 69.8493 60.2488 69.8493 60.4188V64.364C69.8493 64.524 69.7993 64.659 69.6943 64.769C69.5893 64.879 69.4593 64.934 69.2993 64.934C69.1393 64.934 69.0093 64.879 68.9093 64.774C68.8093 64.669 68.7543 64.534 68.7493 64.374C68.5943 64.554 68.3893 64.709 68.1292 64.834C67.8692 64.959 67.5942 65.024 67.3042 65.024C66.8792 65.024 66.4991 64.914 66.1541 64.694C65.8091 64.474 65.5391 64.169 65.3391 63.774C65.1391 63.3839 65.0391 62.9389 65.0391 62.4389C65.0391 61.9389 65.1391 61.4938 65.3341 61.0988C65.5291 60.7038 65.7991 60.3988 66.1391 60.1738C66.4791 59.9488 66.8542 59.8438 67.2642 59.8438C67.5592 59.8438 67.8342 59.8988 68.0892 60.0088C68.3492 60.1188 68.5643 60.2538 68.7443 60.4238V60.4138C68.7443 60.2538 68.7943 60.1188 68.8993 60.0088C69.0043 59.8988 69.1343 59.8438 69.2943 59.8438C69.4543 59.8438 69.5843 59.8988 69.6893 60.0038L69.6943 60.0088ZM68.4193 63.554C68.6693 63.2589 68.7943 62.8889 68.7943 62.4389C68.7943 61.9889 68.6693 61.6188 68.4193 61.3188C68.1692 61.0188 67.8442 60.8688 67.4442 60.8688C67.0442 60.8688 66.7292 61.0188 66.4791 61.3188C66.2291 61.6188 66.1041 61.9889 66.1041 62.4389C66.1041 62.8889 66.2291 63.2589 66.4741 63.554C66.7242 63.849 67.0442 63.999 67.4442 63.999C67.8442 63.999 68.1692 63.849 68.4193 63.554Z" fill="#3D408A"/>
<path d="M71.0831 59.2327C70.9981 59.1627 70.9531 59.0427 70.9531 58.8677V58.6927C70.9531 58.5177 70.9981 58.3977 71.0931 58.3277C71.1831 58.2577 71.3331 58.2227 71.5332 58.2227C71.7482 58.2227 71.8982 58.2577 71.9832 58.3277C72.0682 58.3977 72.1132 58.5177 72.1132 58.6927V58.8677C72.1132 59.0477 72.0682 59.1727 71.9782 59.2377C71.8882 59.3027 71.7382 59.3377 71.5232 59.3377C71.3081 59.3377 71.1681 59.3027 71.0831 59.2327ZM71.9282 64.768C71.8232 64.878 71.6932 64.933 71.5332 64.933C71.3731 64.933 71.2431 64.878 71.1381 64.768C71.0331 64.658 70.9831 64.523 70.9831 64.363V60.5128C70.9831 60.3528 71.0331 60.2178 71.1381 60.1078C71.2431 59.9978 71.3731 59.9428 71.5332 59.9428C71.6932 59.9428 71.8232 59.9978 71.9282 60.1078C72.0332 60.2178 72.0832 60.3528 72.0832 60.5128V64.363C72.0832 64.523 72.0332 64.658 71.9282 64.768Z" fill="#3D408A"/>
<path d="M77.1496 60.4127C77.3896 60.7877 77.5096 61.3077 77.5096 61.9728V64.3629C77.5096 64.5229 77.4596 64.6579 77.3546 64.7679C77.2496 64.8779 77.1196 64.9329 76.9596 64.9329C76.7996 64.9329 76.6696 64.8779 76.5646 64.7679C76.4596 64.6579 76.4095 64.5229 76.4095 64.3629V61.9728C76.4095 61.6328 76.3395 61.3627 76.1995 61.1677C76.0595 60.9727 75.8145 60.8727 75.4745 60.8727C75.1345 60.8727 74.8395 60.9777 74.6395 61.1827C74.4394 61.3927 74.3344 61.6528 74.3344 61.9728V64.3629C74.3344 64.5229 74.2844 64.6579 74.1794 64.7679C74.0744 64.8779 73.9444 64.9329 73.7844 64.9329C73.6244 64.9329 73.4944 64.8779 73.3894 64.7679C73.2844 64.6579 73.2344 64.5229 73.2344 64.3629V60.5127C73.2344 60.3527 73.2844 60.2177 73.3894 60.1077C73.4944 59.9977 73.6244 59.9427 73.7844 59.9427C73.9444 59.9427 74.0744 59.9977 74.1794 60.1077C74.2844 60.2177 74.3344 60.3527 74.3344 60.5127V60.6727C74.4994 60.4477 74.7145 60.2577 74.9845 60.0927C75.2545 59.9277 75.5445 59.8477 75.8645 59.8477C76.4896 59.8477 76.9196 60.0377 77.1596 60.4127H77.1496Z" fill="#3D408A"/>
<path d="M78.7394 59.2327C78.6544 59.1627 78.6094 59.0427 78.6094 58.8677V58.6927C78.6094 58.5177 78.6544 58.3977 78.7494 58.3277C78.8394 58.2577 78.9894 58.2227 79.1894 58.2227C79.4044 58.2227 79.5544 58.2577 79.6394 58.3277C79.7244 58.3977 79.7694 58.5177 79.7694 58.6927V58.8677C79.7694 59.0477 79.7244 59.1727 79.6344 59.2377C79.5444 59.3027 79.3944 59.3377 79.1794 59.3377C78.9644 59.3377 78.8244 59.3027 78.7394 59.2327ZM79.5844 64.768C79.4794 64.878 79.3494 64.933 79.1894 64.933C79.0294 64.933 78.8994 64.878 78.7944 64.768C78.6894 64.658 78.6394 64.523 78.6394 64.363V60.5128C78.6394 60.3528 78.6894 60.2178 78.7944 60.1078C78.8994 59.9978 79.0294 59.9428 79.1894 59.9428C79.3494 59.9428 79.4794 59.9978 79.5844 60.1078C79.6894 60.2178 79.7394 60.3528 79.7394 60.5128V64.363C79.7394 64.523 79.6894 64.658 79.5844 64.768Z" fill="#3D408A"/>
<path d="M84.7902 60.4127C85.0302 60.7877 85.1502 61.3077 85.1502 61.9728V64.3629C85.1502 64.5229 85.1002 64.6579 84.9952 64.7679C84.8902 64.8779 84.7602 64.9329 84.6002 64.9329C84.4402 64.9329 84.3102 64.8779 84.2052 64.7679C84.1002 64.6579 84.0502 64.5229 84.0502 64.3629V61.9728C84.0502 61.6328 83.9802 61.3627 83.8402 61.1677C83.7002 60.9727 83.4551 60.8727 83.1151 60.8727C82.7751 60.8727 82.4801 60.9777 82.2801 61.1827C82.0801 61.3927 81.9751 61.6528 81.9751 61.9728V64.3629C81.9751 64.5229 81.9251 64.6579 81.8201 64.7679C81.715 64.8779 81.585 64.9329 81.425 64.9329C81.265 64.9329 81.135 64.8779 81.03 64.7679C80.925 64.6579 80.875 64.5229 80.875 64.3629V60.5127C80.875 60.3527 80.925 60.2177 81.03 60.1077C81.135 59.9977 81.265 59.9427 81.425 59.9427C81.585 59.9427 81.715 59.9977 81.8201 60.1077C81.9251 60.2177 81.9751 60.3527 81.9751 60.5127V60.6727C82.1401 60.4477 82.3551 60.2577 82.6251 60.0927C82.8951 59.9277 83.1851 59.8477 83.5051 59.8477C84.1302 59.8477 84.5602 60.0377 84.8002 60.4127H84.7902Z" fill="#3D408A"/>
<path d="M90.8184 60.0077C90.9234 60.1127 90.9734 60.2477 90.9734 60.4177V64.5679C90.9734 65.328 90.7434 65.888 90.2784 66.253C89.8133 66.618 89.2283 66.798 88.5183 66.798C88.3332 66.798 88.0832 66.768 87.7582 66.703C87.4382 66.643 87.2082 66.578 87.0732 66.518C86.7732 66.388 86.6232 66.208 86.6232 65.978C86.6232 65.933 86.6332 65.883 86.6532 65.828C86.6882 65.693 86.7532 65.588 86.8432 65.518C86.9332 65.448 87.0282 65.413 87.1332 65.413C87.1932 65.413 87.2532 65.423 87.3082 65.443C87.3332 65.448 87.4832 65.508 87.7632 65.618C88.0432 65.728 88.2932 65.783 88.5233 65.783C88.9783 65.783 89.3133 65.693 89.5383 65.508C89.7633 65.323 89.8733 65.0629 89.8733 64.7279V64.2779C89.7383 64.4729 89.5333 64.6429 89.2633 64.7979C88.9883 64.9529 88.6983 65.0329 88.3833 65.0329C87.9532 65.0329 87.5632 64.9229 87.2132 64.7029C86.8582 64.4829 86.5832 64.1779 86.3831 63.7829C86.1831 63.3929 86.0781 62.9478 86.0781 62.4478C86.0781 61.9478 86.1781 61.5027 86.3781 61.1077C86.5781 60.7127 86.8482 60.4077 87.1982 60.1827C87.5482 59.9577 87.9282 59.8527 88.3532 59.8527C88.6683 59.8527 88.9583 59.9177 89.2283 60.0477C89.4983 60.1777 89.7133 60.3377 89.8833 60.5227V60.4177C89.8833 60.2577 89.9333 60.1227 90.0383 60.0127C90.1433 59.9027 90.2734 59.8477 90.4334 59.8477C90.5934 59.8477 90.7234 59.9027 90.8284 60.0077H90.8184ZM89.5283 63.5529C89.7883 63.2578 89.9183 62.8878 89.9183 62.4378C89.9183 61.9878 89.7883 61.6178 89.5283 61.3177C89.2683 61.0177 88.9333 60.8677 88.5233 60.8677C88.1132 60.8677 87.7782 61.0177 87.5232 61.3177C87.2682 61.6178 87.1382 61.9878 87.1382 62.4378C87.1382 62.8878 87.2682 63.2578 87.5232 63.5529C87.7832 63.8479 88.1132 63.9979 88.5233 63.9979C88.9333 63.9979 89.2683 63.8479 89.5283 63.5529Z" fill="#3D408A"/>
</g>
<defs>
<clipPath id="clip0_1_1370">
<rect width="91" height="66.4186" fill="white" transform="translate(0 0.378906)"/>
</clipPath>
</defs>
</svg>
