<svg width="199" height="145" viewBox="0 0 199 145" fill="none" xmlns="http://www.w3.org/2000/svg">
<path d="M112.812 71.1235H104.815V105.089H112.812V71.1235Z" fill="white"/>
<path d="M129.224 86.0484C127.962 86.0484 126.939 85.0366 126.939 83.7963V75.2668C127.026 72.09 131.748 72.0791 131.835 75.2668V81.7945H135.991V77.3013C135.632 68.6847 123.142 68.6847 122.783 77.3013V85.2541C122.794 85.809 122.979 87.4627 124.578 88.2134C123.763 88.605 122.783 89.4319 122.783 91.2052V99.0711C123.142 107.688 135.632 107.688 135.991 99.0711V90.1608H138.776V86.0484H129.224ZM129.398 103.532C128.049 103.532 126.95 102.444 126.95 101.116V92.4237C126.95 91.1834 127.973 90.1717 129.235 90.1717H131.846V101.127C131.846 102.455 130.747 103.532 129.398 103.532Z" fill="white"/>
<path d="M9.26195 105.089C9.25107 90.0427 8.2828 69.6002 15.4524 57.6763C16.3118 56.1532 17.5956 56.1858 18.4551 57.7198C24.4497 68.2076 24.9175 85.3863 24.5802 105.089H32.903V90.7825C32.903 71.0798 24.8087 60.7334 20.1197 56.3925C18.3463 54.7497 15.6482 54.7171 13.864 56.349C0.286404 69.0018 0.895652 88.2911 0.93917 105.089H9.26195Z" fill="white"/>
<path d="M51.2738 105.089V81.6003C51.2738 77.6728 54.2766 74.4851 57.9647 74.4851C61.6528 74.4851 64.6447 77.6619 64.6447 81.5894V105.1H73.0436V81.6112C73.0436 77.6837 76.0464 74.496 79.7345 74.496C83.4226 74.496 86.4145 77.6728 86.4145 81.6003V105.111H94.8134V86.9095C94.8896 72.7444 78.3093 65.3137 68.8442 75.8342C59.3681 65.3137 42.7987 72.7553 42.8749 86.9095V105.111H51.2738V105.089Z" fill="white"/>
<path d="M155.367 105.088V65.791C155.367 61.8962 158.369 58.7302 162.057 58.7302C165.746 58.7302 168.737 61.8853 168.737 65.7693V105.077H177.147V65.7801C177.147 61.8853 180.15 58.7194 183.838 58.7194C187.526 58.7194 190.518 61.8744 190.518 65.7584V105.066H198.917V71.0132C198.993 56.9678 182.424 49.6024 172.948 60.0249C163.472 49.5915 146.902 56.9678 146.979 71.0132V105.066H155.377L155.367 105.088Z" fill="white"/>
<path d="M19.0381 82.2293C17.8631 83.4043 15.9701 83.4043 14.7951 82.2293C13.6201 81.0544 13.6201 79.1613 14.7951 77.9864C15.9701 76.8223 17.8631 76.8223 19.0381 77.9864C20.2131 79.1613 20.2131 81.0544 19.0381 82.2293Z" fill="#85B658"/>
<path d="M105.241 56.6085C107.188 54.6611 110.354 54.6611 112.301 56.6085C114.249 58.5559 114.249 61.7218 112.301 63.6693C110.354 65.6167 107.188 65.6167 105.241 63.6693C103.293 61.7218 103.293 58.5559 105.241 56.6085Z" fill="#3F469D"/>
<path d="M115.872 32.892C118.211 30.5529 122.008 30.5529 124.347 32.892C126.687 35.2311 126.687 39.028 124.347 41.3671C122.008 43.7062 118.211 43.7062 115.872 41.3671C113.533 39.028 113.533 35.2311 115.872 32.892Z" fill="#AB7BA5"/>
<path d="M137.402 13.2878C140.133 10.5571 144.561 10.5571 147.292 13.2878C150.023 16.0185 150.023 20.4465 147.292 23.1772C144.561 25.908 140.133 25.908 137.402 23.1772C134.672 20.4465 134.672 16.0185 137.402 13.2878Z" fill="#DF6580"/>
<path d="M167.338 2.84327C170.46 -0.279136 175.519 -0.279136 178.642 2.84327C181.764 5.96567 181.764 11.0246 178.642 14.147C175.519 17.2694 170.46 17.2694 167.338 14.147C164.215 11.0246 164.215 5.96567 167.338 2.84327Z" fill="#CB1B3C"/>
<path d="M32.4803 56.7944C31.24 58.0346 29.2382 58.0346 27.9979 56.7944C26.7577 55.5541 26.7577 53.5523 27.9979 52.312C29.2382 51.0718 31.24 51.0718 32.4803 52.312C33.7205 53.5523 33.7205 55.5541 32.4803 56.7944Z" fill="#27B462"/>
<path d="M45.8886 39.5286C47.2594 38.1578 49.4679 38.1578 50.8387 39.5286C52.1986 40.8885 52.1986 43.1079 50.8387 44.4679C49.4679 45.8387 47.2594 45.8387 45.8886 44.4679C44.5286 43.0971 44.5286 40.8885 45.8886 39.5286Z" fill="#00B2D4"/>
<path d="M67.4134 35.2537C68.9692 33.698 71.5041 33.698 73.0599 35.2537C74.6156 36.8095 74.6156 39.3444 73.0599 40.9002C71.5041 42.4559 68.9692 42.4559 67.4134 40.9002C65.8577 39.3444 65.8577 36.8095 67.4134 35.2537Z" fill="#0098D2"/>
<path d="M89.1512 40.7141C90.9028 38.9625 93.7532 38.9625 95.5048 40.7141C97.2564 42.4657 97.2564 45.3161 95.5048 47.0677C93.7532 48.8193 90.9028 48.8193 89.1512 47.0677C87.3996 45.3161 87.3996 42.4657 89.1512 40.7141Z" fill="#4189C5"/>
<path d="M7.87192 121.072C8.08508 121.178 8.20805 121.346 8.24084 121.576C8.28184 121.805 8.22445 122.014 8.06868 122.203C7.9621 122.351 7.82273 122.433 7.65056 122.449C7.4866 122.465 7.31853 122.433 7.14637 122.351C6.94961 122.26 6.74055 122.191 6.51919 122.141C6.30604 122.092 6.08058 122.068 5.84283 122.068C5.40012 122.068 5.0025 122.137 4.64997 122.277C4.30564 122.416 4.0105 122.617 3.76455 122.879C3.5186 123.133 3.33004 123.437 3.19887 123.789C3.07589 124.142 3.0144 124.531 3.0144 124.958C3.0144 125.458 3.08409 125.892 3.22346 126.261C3.37103 126.63 3.57189 126.937 3.82604 127.183C4.08019 127.429 4.37943 127.614 4.72376 127.737C5.06809 127.852 5.44111 127.909 5.84283 127.909C6.06419 127.909 6.28554 127.888 6.5069 127.848C6.72825 127.807 6.94141 127.733 7.14637 127.626C7.31853 127.544 7.4866 127.515 7.65056 127.54C7.82273 127.565 7.9662 127.651 8.08098 127.798C8.24494 128.003 8.30233 128.216 8.25314 128.438C8.21215 128.651 8.08917 128.807 7.88422 128.905C7.67106 129.012 7.4497 129.102 7.22015 129.176C6.9988 129.241 6.77334 129.29 6.54379 129.323C6.31423 129.364 6.08058 129.385 5.84283 129.385C5.25255 129.385 4.69096 129.29 4.15807 129.102C3.63338 128.913 3.16197 128.635 2.74386 128.266C2.33394 127.897 2.01011 127.438 1.77236 126.888C1.5346 126.331 1.41573 125.687 1.41573 124.958C1.41573 124.326 1.52231 123.744 1.73546 123.211C1.95682 122.678 2.26426 122.219 2.65778 121.834C3.05949 121.441 3.5309 121.137 4.07199 120.924C4.61308 120.703 5.20336 120.592 5.84283 120.592C6.20356 120.592 6.55609 120.633 6.90042 120.715C7.24475 120.797 7.56858 120.916 7.87192 121.072ZM10.048 129.262C9.83484 129.262 9.65858 129.192 9.51921 129.053C9.37984 128.905 9.31015 128.725 9.31015 128.512V123.433C9.31015 123.22 9.37984 123.043 9.51921 122.904C9.65858 122.756 9.83484 122.683 10.048 122.683C10.2612 122.683 10.4374 122.756 10.5768 122.904C10.7162 123.043 10.7859 123.22 10.7859 123.433V124.589L10.6998 123.765C10.7899 123.568 10.9047 123.396 11.0441 123.248C11.1917 123.092 11.3556 122.965 11.536 122.867C11.7164 122.76 11.909 122.683 12.114 122.633C12.3189 122.584 12.5239 122.56 12.7289 122.56C12.9748 122.56 13.1798 122.629 13.3437 122.769C13.5159 122.908 13.602 123.072 13.602 123.261C13.602 123.531 13.5323 123.728 13.3929 123.851C13.2536 123.966 13.1019 124.023 12.9379 124.023C12.7821 124.023 12.6387 123.994 12.5075 123.937C12.3845 123.88 12.2411 123.851 12.0771 123.851C11.9295 123.851 11.7778 123.888 11.6221 123.961C11.4745 124.027 11.3351 124.134 11.204 124.281C11.081 124.429 10.9785 124.613 10.8965 124.835C10.8227 125.048 10.7859 125.302 10.7859 125.597V128.512C10.7859 128.725 10.7162 128.905 10.5768 129.053C10.4374 129.192 10.2612 129.262 10.048 129.262ZM17.3421 129.385C16.6452 129.385 16.0385 129.241 15.522 128.954C15.0137 128.659 14.6202 128.262 14.3415 127.761C14.0709 127.261 13.9356 126.696 13.9356 126.064C13.9356 125.327 14.0832 124.699 14.3784 124.183C14.6817 123.658 15.0752 123.256 15.5589 122.978C16.0426 122.699 16.555 122.56 17.0961 122.56C17.5142 122.56 17.9077 122.646 18.2767 122.818C18.6538 122.99 18.9858 123.228 19.2728 123.531C19.5597 123.826 19.7852 124.171 19.9491 124.564C20.1213 124.958 20.2074 125.376 20.2074 125.818C20.1992 126.015 20.1213 126.175 19.9737 126.298C19.8261 126.421 19.654 126.482 19.4572 126.482H14.7596L14.3907 125.253H18.9038L18.6333 125.499V125.167C18.6169 124.929 18.5308 124.716 18.375 124.527C18.2275 124.339 18.0389 124.191 17.8094 124.084C17.588 123.97 17.3503 123.912 17.0961 123.912C16.8502 123.912 16.6206 123.945 16.4074 124.011C16.1943 124.076 16.0098 124.187 15.8541 124.343C15.6983 124.498 15.5753 124.708 15.4851 124.97C15.3949 125.232 15.3499 125.564 15.3499 125.966C15.3499 126.409 15.44 126.786 15.6204 127.097C15.809 127.401 16.0467 127.634 16.3337 127.798C16.6288 127.954 16.9403 128.032 17.2683 128.032C17.5716 128.032 17.8135 128.007 17.9938 127.958C18.1742 127.909 18.3177 127.852 18.4242 127.786C18.539 127.712 18.6415 127.651 18.7317 127.602C18.8792 127.528 19.0186 127.491 19.1498 127.491C19.3302 127.491 19.4777 127.552 19.5925 127.675C19.7155 127.798 19.777 127.942 19.777 128.106C19.777 128.327 19.6622 128.528 19.4326 128.708C19.2195 128.889 18.9202 129.049 18.5349 129.188C18.1496 129.319 17.752 129.385 17.3421 129.385ZM26.8081 122.56C27.0212 122.56 27.1975 122.629 27.3369 122.769C27.4762 122.908 27.5459 123.088 27.5459 123.31V128.512C27.5459 128.725 27.4762 128.905 27.3369 129.053C27.1975 129.192 27.0212 129.262 26.8081 129.262C26.5949 129.262 26.4186 129.192 26.2793 129.053C26.1399 128.905 26.0702 128.725 26.0702 128.512V127.909L26.3408 128.02C26.3408 128.126 26.2834 128.257 26.1686 128.413C26.0538 128.561 25.898 128.708 25.7013 128.856C25.5045 129.003 25.2709 129.131 25.0003 129.237C24.738 129.336 24.451 129.385 24.1395 129.385C23.5738 129.385 23.0614 129.241 22.6023 128.954C22.1432 128.659 21.7784 128.257 21.5078 127.749C21.2455 127.233 21.1143 126.642 21.1143 125.978C21.1143 125.306 21.2455 124.716 21.5078 124.207C21.7784 123.691 22.1391 123.289 22.59 123.002C23.0409 122.707 23.541 122.56 24.0903 122.56C24.4428 122.56 24.7667 122.613 25.0618 122.719C25.357 122.826 25.6111 122.961 25.8243 123.125C26.0456 123.289 26.2137 123.457 26.3285 123.629C26.4514 123.793 26.5129 123.933 26.5129 124.048L26.0702 124.207V123.31C26.0702 123.097 26.1399 122.92 26.2793 122.781C26.4186 122.633 26.5949 122.56 26.8081 122.56ZM24.324 128.032C24.6847 128.032 25.0003 127.942 25.2709 127.761C25.5414 127.581 25.7505 127.335 25.898 127.024C26.0538 126.712 26.1317 126.364 26.1317 125.978C26.1317 125.585 26.0538 125.232 25.898 124.921C25.7505 124.609 25.5414 124.363 25.2709 124.183C25.0003 124.002 24.6847 123.912 24.324 123.912C23.9714 123.912 23.6599 124.002 23.3894 124.183C23.1188 124.363 22.9057 124.609 22.7499 124.921C22.6023 125.232 22.5285 125.585 22.5285 125.978C22.5285 126.364 22.6023 126.712 22.7499 127.024C22.9057 127.335 23.1188 127.581 23.3894 127.761C23.6599 127.942 23.9714 128.032 24.324 128.032ZM29.0945 122.806H32.009C32.2058 122.806 32.3698 122.871 32.5009 123.002C32.6321 123.133 32.6977 123.297 32.6977 123.494C32.6977 123.683 32.6321 123.843 32.5009 123.974C32.3698 124.097 32.2058 124.158 32.009 124.158H29.0945C28.8978 124.158 28.7338 124.093 28.6026 123.961C28.4715 123.83 28.4059 123.666 28.4059 123.47C28.4059 123.281 28.4715 123.125 28.6026 123.002C28.7338 122.871 28.8978 122.806 29.0945 122.806ZM30.4104 121.268C30.6235 121.268 30.7957 121.342 30.9269 121.49C31.0662 121.629 31.1359 121.805 31.1359 122.018V127.491C31.1359 127.606 31.1564 127.7 31.1974 127.774C31.2466 127.848 31.3081 127.901 31.3819 127.934C31.4638 127.966 31.5499 127.983 31.6401 127.983C31.7385 127.983 31.8287 127.966 31.9107 127.934C31.9926 127.893 32.0869 127.872 32.1935 127.872C32.3083 127.872 32.4108 127.925 32.5009 128.032C32.5993 128.139 32.6485 128.286 32.6485 128.475C32.6485 128.704 32.5214 128.893 32.2673 129.04C32.0213 129.188 31.7549 129.262 31.4679 129.262C31.2958 129.262 31.1031 129.249 30.89 129.225C30.685 129.192 30.4882 129.122 30.2997 129.016C30.1193 128.901 29.9677 128.729 29.8447 128.499C29.7217 128.27 29.6602 127.954 29.6602 127.552V122.018C29.6602 121.805 29.7299 121.629 29.8693 121.49C30.0168 121.342 30.1972 121.268 30.4104 121.268ZM35.3193 128.512C35.3193 128.725 35.2496 128.905 35.1102 129.053C34.9708 129.192 34.7946 129.262 34.5814 129.262C34.3683 129.262 34.192 129.192 34.0526 129.053C33.9133 128.905 33.8436 128.725 33.8436 128.512V123.433C33.8436 123.22 33.9133 123.043 34.0526 122.904C34.192 122.756 34.3683 122.683 34.5814 122.683C34.7946 122.683 34.9708 122.756 35.1102 122.904C35.2496 123.043 35.3193 123.22 35.3193 123.433V128.512ZM34.5691 121.883C34.2904 121.883 34.0936 121.838 33.9788 121.748C33.8641 121.658 33.8067 121.498 33.8067 121.268V121.035C33.8067 120.797 33.8682 120.637 33.9911 120.555C34.1223 120.465 34.3191 120.42 34.5814 120.42C34.8684 120.42 35.0692 120.465 35.184 120.555C35.2988 120.645 35.3562 120.805 35.3562 121.035V121.268C35.3562 121.506 35.2947 121.67 35.1717 121.76C35.0487 121.842 34.8479 121.883 34.5691 121.883ZM40.23 122.56C40.8367 122.56 41.2958 122.687 41.6073 122.941C41.9271 123.195 42.1443 123.535 42.2591 123.961C42.3821 124.38 42.4436 124.847 42.4436 125.363V128.512C42.4436 128.725 42.3739 128.905 42.2345 129.053C42.0951 129.192 41.9189 129.262 41.7057 129.262C41.4926 129.262 41.3163 129.192 41.1769 129.053C41.0375 128.905 40.9679 128.725 40.9679 128.512V125.363C40.9679 125.093 40.931 124.851 40.8572 124.638C40.7916 124.417 40.6686 124.24 40.4883 124.109C40.3079 123.978 40.0497 123.912 39.7135 123.912C39.3856 123.912 39.1068 123.978 38.8773 124.109C38.6559 124.24 38.4838 124.417 38.3608 124.638C38.246 124.851 38.1886 125.093 38.1886 125.363V128.512C38.1886 128.725 38.1189 128.905 37.9796 129.053C37.8402 129.192 37.6639 129.262 37.4508 129.262C37.2376 129.262 37.0614 129.192 36.922 129.053C36.7826 128.905 36.7129 128.725 36.7129 128.512V123.433C36.7129 123.22 36.7826 123.043 36.922 122.904C37.0614 122.756 37.2376 122.683 37.4508 122.683C37.6639 122.683 37.8402 122.756 37.9796 122.904C38.1189 123.043 38.1886 123.22 38.1886 123.433V123.961L38.0042 123.925C38.078 123.785 38.1845 123.638 38.3239 123.482C38.4633 123.318 38.6272 123.166 38.8158 123.027C39.0044 122.888 39.2175 122.777 39.4553 122.695C39.693 122.605 39.9513 122.56 40.23 122.56ZM46.6457 122.56C46.99 122.56 47.3056 122.613 47.5926 122.719C47.8795 122.826 48.1255 122.961 48.3304 123.125C48.5436 123.289 48.7075 123.457 48.8223 123.629C48.9453 123.793 49.0068 123.933 49.0068 124.048L48.687 124.207V123.31C48.687 123.097 48.7567 122.92 48.8961 122.781C49.0355 122.633 49.2117 122.56 49.4249 122.56C49.6381 122.56 49.8143 122.629 49.9537 122.769C50.0931 122.908 50.1627 123.088 50.1627 123.31V128.782C50.1627 129.495 50.007 130.065 49.6954 130.491C49.3921 130.926 48.9904 131.238 48.4903 131.426C47.9902 131.623 47.4532 131.721 46.8793 131.721C46.7153 131.721 46.5022 131.701 46.2398 131.66C45.9775 131.619 45.7274 131.57 45.4897 131.512C45.2519 131.455 45.0716 131.401 44.9486 131.352C44.7027 131.246 44.5305 131.11 44.4321 130.946C44.3419 130.791 44.3255 130.623 44.3829 130.442C44.4567 130.205 44.5756 130.041 44.7396 129.95C44.9035 129.868 45.0757 129.86 45.256 129.926C45.338 129.95 45.4733 130 45.6619 130.073C45.8504 130.147 46.0554 130.213 46.2767 130.27C46.5063 130.336 46.7072 130.368 46.8793 130.368C47.4942 130.368 47.9492 130.246 48.2443 130C48.5395 129.754 48.687 129.413 48.687 128.979V127.909L48.8346 128.02C48.8346 128.126 48.7772 128.257 48.6625 128.413C48.5559 128.561 48.4042 128.708 48.2074 128.856C48.0189 129.003 47.7934 129.131 47.5311 129.237C47.2687 129.336 46.99 129.385 46.6949 129.385C46.1128 129.385 45.5881 129.241 45.1208 128.954C44.6535 128.659 44.2845 128.257 44.014 127.749C43.7435 127.233 43.6082 126.642 43.6082 125.978C43.6082 125.306 43.7435 124.716 44.014 124.207C44.2845 123.691 44.6494 123.289 45.1085 123.002C45.5676 122.707 46.08 122.56 46.6457 122.56ZM46.8793 123.912C46.5104 123.912 46.1866 124.002 45.9078 124.183C45.6291 124.363 45.4118 124.609 45.256 124.921C45.1003 125.232 45.0224 125.585 45.0224 125.978C45.0224 126.364 45.1003 126.712 45.256 127.024C45.4118 127.335 45.6291 127.581 45.9078 127.761C46.1866 127.942 46.5104 128.032 46.8793 128.032C47.2564 128.032 47.5844 127.942 47.8631 127.761C48.1419 127.581 48.3591 127.335 48.5149 127.024C48.6707 126.712 48.7485 126.364 48.7485 125.978C48.7485 125.585 48.6707 125.232 48.5149 124.921C48.3591 124.609 48.1419 124.363 47.8631 124.183C47.5844 124.002 47.2564 123.912 46.8793 123.912ZM55.0322 122.806H57.9467C58.1434 122.806 58.3074 122.871 58.4386 123.002C58.5698 123.133 58.6353 123.297 58.6353 123.494C58.6353 123.683 58.5698 123.843 58.4386 123.974C58.3074 124.097 58.1434 124.158 57.9467 124.158H55.0322C54.8354 124.158 54.6714 124.093 54.5403 123.961C54.4091 123.83 54.3435 123.666 54.3435 123.47C54.3435 123.281 54.4091 123.125 54.5403 123.002C54.6714 122.871 54.8354 122.806 55.0322 122.806ZM56.348 121.268C56.5612 121.268 56.7333 121.342 56.8645 121.49C57.0039 121.629 57.0736 121.805 57.0736 122.018V127.491C57.0736 127.606 57.0941 127.7 57.1351 127.774C57.1842 127.848 57.2457 127.901 57.3195 127.934C57.4015 127.966 57.4876 127.983 57.5778 127.983C57.6761 127.983 57.7663 127.966 57.8483 127.934C57.9303 127.893 58.0246 127.872 58.1311 127.872C58.2459 127.872 58.3484 127.925 58.4386 128.032C58.537 128.139 58.5862 128.286 58.5862 128.475C58.5862 128.704 58.4591 128.893 58.2049 129.04C57.959 129.188 57.6925 129.262 57.4056 129.262C57.2334 129.262 57.0408 129.249 56.8276 129.225C56.6227 129.192 56.4259 129.122 56.2373 129.016C56.057 128.901 55.9053 128.729 55.7823 128.499C55.6593 128.27 55.5979 127.954 55.5979 127.552V122.018C55.5979 121.805 55.6675 121.629 55.8069 121.49C55.9545 121.342 56.1349 121.268 56.348 121.268ZM60.6052 129.262C60.392 129.262 60.2157 129.192 60.0764 129.053C59.937 128.905 59.8673 128.725 59.8673 128.512V123.433C59.8673 123.22 59.937 123.043 60.0764 122.904C60.2157 122.756 60.392 122.683 60.6052 122.683C60.8183 122.683 60.9946 122.756 61.1339 122.904C61.2733 123.043 61.343 123.22 61.343 123.433V124.589L61.2569 123.765C61.3471 123.568 61.4619 123.396 61.6013 123.248C61.7488 123.092 61.9128 122.965 62.0932 122.867C62.2735 122.76 62.4662 122.683 62.6711 122.633C62.8761 122.584 63.0811 122.56 63.286 122.56C63.532 122.56 63.7369 122.629 63.9009 122.769C64.0731 122.908 64.1591 123.072 64.1591 123.261C64.1591 123.531 64.0894 123.728 63.9501 123.851C63.8107 123.966 63.659 124.023 63.4951 124.023C63.3393 124.023 63.1958 123.994 63.0647 123.937C62.9417 123.88 62.7982 123.851 62.6342 123.851C62.4867 123.851 62.335 123.888 62.1792 123.961C62.0317 124.027 61.8923 124.134 61.7611 124.281C61.6381 124.429 61.5357 124.613 61.4537 124.835C61.3799 125.048 61.343 125.302 61.343 125.597V128.512C61.343 128.725 61.2733 128.905 61.1339 129.053C60.9946 129.192 60.8183 129.262 60.6052 129.262ZM69.9586 122.683C70.1717 122.683 70.348 122.756 70.4874 122.904C70.6267 123.043 70.6964 123.22 70.6964 123.433V126.556C70.6964 127.425 70.4546 128.114 69.9709 128.622C69.4872 129.131 68.7903 129.385 67.8803 129.385C66.9703 129.385 66.2734 129.131 65.7897 128.622C65.3142 128.114 65.0764 127.425 65.0764 126.556V123.433C65.0764 123.22 65.1461 123.043 65.2855 122.904C65.4249 122.756 65.6011 122.683 65.8143 122.683C66.0275 122.683 66.2037 122.756 66.3431 122.904C66.4825 123.043 66.5521 123.22 66.5521 123.433V126.556C66.5521 127.056 66.6628 127.429 66.8842 127.675C67.1055 127.913 67.4376 128.032 67.8803 128.032C68.3312 128.032 68.6673 127.913 68.8887 127.675C69.11 127.429 69.2207 127.056 69.2207 126.556V123.433C69.2207 123.22 69.2904 123.043 69.4298 122.904C69.5691 122.756 69.7454 122.683 69.9586 122.683ZM75.27 129.385C74.5732 129.385 73.9665 129.241 73.45 128.954C72.9417 128.659 72.5482 128.262 72.2694 127.761C71.9989 127.261 71.8636 126.696 71.8636 126.064C71.8636 125.327 72.0112 124.699 72.3063 124.183C72.6097 123.658 73.0032 123.256 73.4869 122.978C73.9706 122.699 74.483 122.56 75.0241 122.56C75.4422 122.56 75.8357 122.646 76.2046 122.818C76.5818 122.99 76.9138 123.228 77.2007 123.531C77.4877 123.826 77.7131 124.171 77.8771 124.564C78.0493 124.958 78.1353 125.376 78.1353 125.818C78.1271 126.015 78.0493 126.175 77.9017 126.298C77.7541 126.421 77.582 126.482 77.3852 126.482H72.6876L72.3186 125.253H76.8318L76.5613 125.499V125.167C76.5449 124.929 76.4588 124.716 76.303 124.527C76.1554 124.339 75.9669 124.191 75.7373 124.084C75.516 123.97 75.2782 123.912 75.0241 123.912C74.7781 123.912 74.5486 123.945 74.3354 124.011C74.1223 124.076 73.9378 124.187 73.782 124.343C73.6263 124.498 73.5033 124.708 73.4131 124.97C73.3229 125.232 73.2778 125.564 73.2778 125.966C73.2778 126.409 73.368 126.786 73.5484 127.097C73.7369 127.401 73.9747 127.634 74.2616 127.798C74.5568 127.954 74.8683 128.032 75.1962 128.032C75.4996 128.032 75.7414 128.007 75.9218 127.958C76.1022 127.909 76.2456 127.852 76.3522 127.786C76.467 127.712 76.5695 127.651 76.6596 127.602C76.8072 127.528 76.9466 127.491 77.0778 127.491C77.2581 127.491 77.4057 127.552 77.5205 127.675C77.6434 127.798 77.7049 127.942 77.7049 128.106C77.7049 128.327 77.5902 128.528 77.3606 128.708C77.1474 128.889 76.8482 129.049 76.4629 129.188C76.0776 129.319 75.6799 129.385 75.27 129.385ZM86.0318 122.56C86.6057 122.56 87.1181 122.707 87.569 123.002C88.0281 123.289 88.3888 123.687 88.6511 124.195C88.9217 124.703 89.057 125.294 89.057 125.966C89.057 126.638 88.9217 127.233 88.6511 127.749C88.3888 128.257 88.0322 128.659 87.5813 128.954C87.1386 129.241 86.6385 129.385 86.081 129.385C85.753 129.385 85.4456 129.331 85.1587 129.225C84.8717 129.118 84.6176 128.983 84.3962 128.819C84.1831 128.655 84.015 128.491 83.892 128.327C83.7772 128.155 83.7199 128.011 83.7199 127.897L84.1011 127.737V130.971C84.1011 131.184 84.0314 131.36 83.892 131.5C83.7526 131.647 83.5764 131.721 83.3632 131.721C83.1501 131.721 82.9738 131.652 82.8344 131.512C82.6951 131.373 82.6254 131.192 82.6254 130.971V123.433C82.6254 123.22 82.6951 123.043 82.8344 122.904C82.9738 122.756 83.1501 122.683 83.3632 122.683C83.5764 122.683 83.7526 122.756 83.892 122.904C84.0314 123.043 84.1011 123.22 84.1011 123.433V124.035L83.892 123.925C83.892 123.818 83.9494 123.691 84.0642 123.543C84.179 123.388 84.3347 123.236 84.5315 123.088C84.7282 122.933 84.9537 122.806 85.2078 122.707C85.4702 122.609 85.7448 122.56 86.0318 122.56ZM85.8473 123.912C85.4866 123.912 85.171 124.002 84.9004 124.183C84.6299 124.363 84.4167 124.609 84.2609 124.921C84.1134 125.224 84.0396 125.572 84.0396 125.966C84.0396 126.351 84.1134 126.704 84.2609 127.024C84.4167 127.335 84.6299 127.581 84.9004 127.761C85.171 127.942 85.4866 128.032 85.8473 128.032C86.208 128.032 86.5196 127.942 86.7819 127.761C87.0525 127.581 87.2615 127.335 87.4091 127.024C87.5649 126.704 87.6428 126.351 87.6428 125.966C87.6428 125.572 87.5649 125.224 87.4091 124.921C87.2615 124.609 87.0525 124.363 86.7819 124.183C86.5196 124.002 86.208 123.912 85.8473 123.912ZM90.9622 129.262C90.7491 129.262 90.5728 129.192 90.4334 129.053C90.294 128.905 90.2244 128.725 90.2244 128.512V123.433C90.2244 123.22 90.294 123.043 90.4334 122.904C90.5728 122.756 90.7491 122.683 90.9622 122.683C91.1754 122.683 91.3516 122.756 91.491 122.904C91.6304 123.043 91.7001 123.22 91.7001 123.433V124.589L91.614 123.765C91.7042 123.568 91.8189 123.396 91.9583 123.248C92.1059 123.092 92.2698 122.965 92.4502 122.867C92.6306 122.76 92.8232 122.683 93.0282 122.633C93.2332 122.584 93.4381 122.56 93.6431 122.56C93.889 122.56 94.094 122.629 94.2579 122.769C94.4301 122.908 94.5162 123.072 94.5162 123.261C94.5162 123.531 94.4465 123.728 94.3071 123.851C94.1678 123.966 94.0161 124.023 93.8521 124.023C93.6964 124.023 93.5529 123.994 93.4217 123.937C93.2987 123.88 93.1553 123.851 92.9913 123.851C92.8437 123.851 92.6921 123.888 92.5363 123.961C92.3887 124.027 92.2494 124.134 92.1182 124.281C91.9952 124.429 91.8927 124.613 91.8107 124.835C91.737 125.048 91.7001 125.302 91.7001 125.597V128.512C91.7001 128.725 91.6304 128.905 91.491 129.053C91.3516 129.192 91.1754 129.262 90.9622 129.262ZM101.54 125.978C101.54 126.651 101.388 127.245 101.085 127.761C100.79 128.27 100.388 128.667 99.8795 128.954C99.3794 129.241 98.8179 129.385 98.1948 129.385C97.5717 129.385 97.006 129.241 96.4977 128.954C95.9976 128.667 95.5959 128.27 95.2926 127.761C94.9974 127.245 94.8499 126.651 94.8499 125.978C94.8499 125.306 94.9974 124.716 95.2926 124.207C95.5959 123.691 95.9976 123.289 96.4977 123.002C97.006 122.707 97.5717 122.56 98.1948 122.56C98.8179 122.56 99.3794 122.707 99.8795 123.002C100.388 123.289 100.79 123.691 101.085 124.207C101.388 124.716 101.54 125.306 101.54 125.978ZM100.064 125.978C100.064 125.56 99.9779 125.199 99.8058 124.896C99.6418 124.585 99.4163 124.343 99.1294 124.171C98.8507 123.998 98.5391 123.912 98.1948 123.912C97.8505 123.912 97.5348 123.998 97.2479 124.171C96.9691 124.343 96.7437 124.585 96.5715 124.896C96.4075 125.199 96.3256 125.56 96.3256 125.978C96.3256 126.388 96.4075 126.749 96.5715 127.06C96.7437 127.364 96.9691 127.602 97.2479 127.774C97.5348 127.946 97.8505 128.032 98.1948 128.032C98.5391 128.032 98.8507 127.946 99.1294 127.774C99.4163 127.602 99.6418 127.364 99.8058 127.06C99.9779 126.749 100.064 126.388 100.064 125.978ZM102.327 128.241C102.245 128.126 102.208 127.979 102.216 127.798C102.225 127.618 102.331 127.462 102.536 127.331C102.667 127.249 102.807 127.216 102.954 127.233C103.102 127.241 103.245 127.315 103.385 127.454C103.622 127.692 103.872 127.876 104.135 128.007C104.397 128.139 104.725 128.204 105.119 128.204C105.242 128.196 105.377 128.18 105.524 128.155C105.672 128.122 105.799 128.057 105.906 127.958C106.02 127.852 106.078 127.692 106.078 127.479C106.078 127.298 106.016 127.155 105.893 127.048C105.77 126.942 105.606 126.851 105.401 126.778C105.205 126.704 104.983 126.634 104.737 126.569C104.483 126.495 104.221 126.413 103.95 126.323C103.688 126.232 103.446 126.118 103.225 125.978C103.003 125.831 102.823 125.638 102.684 125.4C102.544 125.163 102.475 124.863 102.475 124.503C102.475 124.093 102.589 123.744 102.819 123.457C103.048 123.17 103.344 122.949 103.704 122.793C104.073 122.637 104.459 122.56 104.86 122.56C105.114 122.56 105.381 122.592 105.66 122.658C105.938 122.715 106.205 122.814 106.459 122.953C106.713 123.084 106.926 123.261 107.098 123.482C107.189 123.605 107.242 123.752 107.258 123.925C107.275 124.097 107.197 124.253 107.025 124.392C106.902 124.49 106.758 124.535 106.594 124.527C106.43 124.511 106.295 124.453 106.188 124.355C106.049 124.175 105.861 124.031 105.623 123.925C105.393 123.818 105.127 123.765 104.823 123.765C104.7 123.765 104.565 123.781 104.418 123.814C104.278 123.839 104.155 123.9 104.049 123.998C103.942 124.089 103.889 124.236 103.889 124.441C103.889 124.63 103.95 124.781 104.073 124.896C104.196 125.003 104.36 125.093 104.565 125.167C104.778 125.232 105.004 125.298 105.242 125.363C105.487 125.429 105.738 125.507 105.992 125.597C106.246 125.687 106.479 125.806 106.693 125.954C106.906 126.101 107.078 126.294 107.209 126.532C107.34 126.761 107.406 127.056 107.406 127.417C107.406 127.835 107.283 128.192 107.037 128.487C106.791 128.782 106.484 129.008 106.115 129.163C105.746 129.311 105.369 129.385 104.983 129.385C104.5 129.385 104.016 129.303 103.532 129.139C103.048 128.967 102.647 128.667 102.327 128.241ZM111.924 122.56C112.498 122.56 113.011 122.707 113.461 123.002C113.921 123.289 114.281 123.687 114.544 124.195C114.814 124.703 114.949 125.294 114.949 125.966C114.949 126.638 114.814 127.233 114.544 127.749C114.281 128.257 113.925 128.659 113.474 128.954C113.031 129.241 112.531 129.385 111.973 129.385C111.646 129.385 111.338 129.331 111.051 129.225C110.764 129.118 110.51 128.983 110.289 128.819C110.076 128.655 109.907 128.491 109.785 128.327C109.67 128.155 109.612 128.011 109.612 127.897L109.994 127.737V130.971C109.994 131.184 109.924 131.36 109.785 131.5C109.645 131.647 109.469 131.721 109.256 131.721C109.043 131.721 108.866 131.652 108.727 131.512C108.588 131.373 108.518 131.192 108.518 130.971V123.433C108.518 123.22 108.588 123.043 108.727 122.904C108.866 122.756 109.043 122.683 109.256 122.683C109.469 122.683 109.645 122.756 109.785 122.904C109.924 123.043 109.994 123.22 109.994 123.433V124.035L109.785 123.925C109.785 123.818 109.842 123.691 109.957 123.543C110.071 123.388 110.227 123.236 110.424 123.088C110.621 122.933 110.846 122.806 111.1 122.707C111.363 122.609 111.637 122.56 111.924 122.56ZM111.74 123.912C111.379 123.912 111.063 124.002 110.793 124.183C110.522 124.363 110.309 124.609 110.153 124.921C110.006 125.224 109.932 125.572 109.932 125.966C109.932 126.351 110.006 126.704 110.153 127.024C110.309 127.335 110.522 127.581 110.793 127.761C111.063 127.942 111.379 128.032 111.74 128.032C112.101 128.032 112.412 127.942 112.674 127.761C112.945 127.581 113.154 127.335 113.302 127.024C113.457 126.704 113.535 126.351 113.535 125.966C113.535 125.572 113.457 125.224 113.302 124.921C113.154 124.609 112.945 124.363 112.674 124.183C112.412 124.002 112.101 123.912 111.74 123.912ZM119.216 129.385C118.519 129.385 117.912 129.241 117.396 128.954C116.888 128.659 116.494 128.262 116.215 127.761C115.945 127.261 115.809 126.696 115.809 126.064C115.809 125.327 115.957 124.699 116.252 124.183C116.555 123.658 116.949 123.256 117.433 122.978C117.916 122.699 118.429 122.56 118.97 122.56C119.388 122.56 119.782 122.646 120.15 122.818C120.528 122.99 120.86 123.228 121.147 123.531C121.433 123.826 121.659 124.171 121.823 124.564C121.995 124.958 122.081 125.376 122.081 125.818C122.073 126.015 121.995 126.175 121.847 126.298C121.7 126.421 121.528 126.482 121.331 126.482H116.633L116.264 125.253H120.778L120.507 125.499V125.167C120.491 124.929 120.405 124.716 120.249 124.527C120.101 124.339 119.913 124.191 119.683 124.084C119.462 123.97 119.224 123.912 118.97 123.912C118.724 123.912 118.494 123.945 118.281 124.011C118.068 124.076 117.884 124.187 117.728 124.343C117.572 124.498 117.449 124.708 117.359 124.97C117.269 125.232 117.224 125.564 117.224 125.966C117.224 126.409 117.314 126.786 117.494 127.097C117.683 127.401 117.92 127.634 118.207 127.798C118.503 127.954 118.814 128.032 119.142 128.032C119.445 128.032 119.687 128.007 119.868 127.958C120.048 127.909 120.191 127.852 120.298 127.786C120.413 127.712 120.515 127.651 120.605 127.602C120.753 127.528 120.892 127.491 121.024 127.491C121.204 127.491 121.351 127.552 121.466 127.675C121.589 127.798 121.651 127.942 121.651 128.106C121.651 128.327 121.536 128.528 121.306 128.708C121.093 128.889 120.794 129.049 120.409 129.188C120.023 129.319 119.626 129.385 119.216 129.385ZM123.985 129.262C123.772 129.262 123.596 129.192 123.457 129.053C123.317 128.905 123.247 128.725 123.247 128.512V123.433C123.247 123.22 123.317 123.043 123.457 122.904C123.596 122.756 123.772 122.683 123.985 122.683C124.198 122.683 124.375 122.756 124.514 122.904C124.654 123.043 124.723 123.22 124.723 123.433V124.589L124.637 123.765C124.727 123.568 124.842 123.396 124.981 123.248C125.129 123.092 125.293 122.965 125.473 122.867C125.654 122.76 125.846 122.683 126.051 122.633C126.256 122.584 126.461 122.56 126.666 122.56C126.912 122.56 127.117 122.629 127.281 122.769C127.453 122.908 127.539 123.072 127.539 123.261C127.539 123.531 127.47 123.728 127.33 123.851C127.191 123.966 127.039 124.023 126.875 124.023C126.719 124.023 126.576 123.994 126.445 123.937C126.322 123.88 126.178 123.851 126.014 123.851C125.867 123.851 125.715 123.888 125.559 123.961C125.412 124.027 125.272 124.134 125.141 124.281C125.018 124.429 124.916 124.613 124.834 124.835C124.76 125.048 124.723 125.302 124.723 125.597V128.512C124.723 128.725 124.654 128.905 124.514 129.053C124.375 129.192 124.198 129.262 123.985 129.262ZM129.846 128.512C129.846 128.725 129.777 128.905 129.637 129.053C129.498 129.192 129.322 129.262 129.108 129.262C128.895 129.262 128.719 129.192 128.58 129.053C128.44 128.905 128.371 128.725 128.371 128.512V123.433C128.371 123.22 128.44 123.043 128.58 122.904C128.719 122.756 128.895 122.683 129.108 122.683C129.322 122.683 129.498 122.756 129.637 122.904C129.777 123.043 129.846 123.22 129.846 123.433V128.512ZM129.096 121.883C128.817 121.883 128.621 121.838 128.506 121.748C128.391 121.658 128.334 121.498 128.334 121.268V121.035C128.334 120.797 128.395 120.637 128.518 120.555C128.649 120.465 128.846 120.42 129.108 120.42C129.395 120.42 129.596 120.465 129.711 120.555C129.826 120.645 129.883 120.805 129.883 121.035V121.268C129.883 121.506 129.822 121.67 129.699 121.76C129.576 121.842 129.375 121.883 129.096 121.883ZM131.314 122.806H134.228C134.425 122.806 134.589 122.871 134.72 123.002C134.851 123.133 134.917 123.297 134.917 123.494C134.917 123.683 134.851 123.843 134.72 123.974C134.589 124.097 134.425 124.158 134.228 124.158H131.314C131.117 124.158 130.953 124.093 130.822 123.961C130.691 123.83 130.625 123.666 130.625 123.47C130.625 123.281 130.691 123.125 130.822 123.002C130.953 122.871 131.117 122.806 131.314 122.806ZM132.63 121.268C132.843 121.268 133.015 121.342 133.146 121.49C133.285 121.629 133.355 121.805 133.355 122.018V127.491C133.355 127.606 133.376 127.7 133.417 127.774C133.466 127.848 133.527 127.901 133.601 127.934C133.683 127.966 133.769 127.983 133.859 127.983C133.958 127.983 134.048 127.966 134.13 127.934C134.212 127.893 134.306 127.872 134.413 127.872C134.527 127.872 134.63 127.925 134.72 128.032C134.818 128.139 134.868 128.286 134.868 128.475C134.868 128.704 134.741 128.893 134.486 129.04C134.24 129.188 133.974 129.262 133.687 129.262C133.515 129.262 133.322 129.249 133.109 129.225C132.904 129.192 132.707 129.122 132.519 129.016C132.338 128.901 132.187 128.729 132.064 128.499C131.941 128.27 131.879 127.954 131.879 127.552V122.018C131.879 121.805 131.949 121.629 132.088 121.49C132.236 121.342 132.416 121.268 132.63 121.268ZM141.031 122.683C141.244 122.683 141.42 122.756 141.56 122.904C141.699 123.043 141.769 123.22 141.769 123.433V128.659C141.769 129.413 141.625 130.012 141.338 130.455C141.06 130.905 140.683 131.229 140.207 131.426C139.731 131.623 139.199 131.721 138.608 131.721C138.346 131.721 138.067 131.701 137.772 131.66C137.477 131.619 137.235 131.557 137.047 131.475C136.801 131.369 136.628 131.233 136.53 131.069C136.44 130.914 136.423 130.746 136.481 130.565C136.555 130.328 136.674 130.164 136.837 130.073C137.001 129.991 137.174 129.983 137.354 130.049C137.485 130.09 137.657 130.151 137.87 130.233C138.084 130.323 138.33 130.368 138.608 130.368C138.985 130.368 139.297 130.315 139.543 130.209C139.797 130.11 139.986 129.938 140.109 129.692C140.24 129.454 140.305 129.126 140.305 128.708V127.884L140.564 128.18C140.424 128.45 140.248 128.676 140.035 128.856C139.83 129.028 139.584 129.159 139.297 129.249C139.01 129.34 138.682 129.385 138.313 129.385C137.879 129.385 137.497 129.286 137.17 129.09C136.85 128.885 136.6 128.606 136.419 128.253C136.239 127.893 136.149 127.483 136.149 127.024V123.433C136.149 123.22 136.219 123.043 136.358 122.904C136.497 122.756 136.674 122.683 136.887 122.683C137.1 122.683 137.276 122.756 137.415 122.904C137.555 123.043 137.625 123.22 137.625 123.433V126.581C137.625 127.114 137.739 127.491 137.969 127.712C138.207 127.925 138.535 128.032 138.953 128.032C139.24 128.032 139.481 127.979 139.678 127.872C139.875 127.757 140.027 127.593 140.133 127.38C140.24 127.159 140.293 126.892 140.293 126.581V123.433C140.293 123.22 140.363 123.043 140.502 122.904C140.642 122.756 140.818 122.683 141.031 122.683ZM146.641 122.806H149.555C149.752 122.806 149.916 122.871 150.047 123.002C150.178 123.133 150.244 123.297 150.244 123.494C150.244 123.683 150.178 123.843 150.047 123.974C149.916 124.097 149.752 124.158 149.555 124.158H146.641C146.444 124.158 146.28 124.093 146.149 123.961C146.018 123.83 145.952 123.666 145.952 123.47C145.952 123.281 146.018 123.125 146.149 123.002C146.28 122.871 146.444 122.806 146.641 122.806ZM147.957 121.268C148.17 121.268 148.342 121.342 148.473 121.49C148.613 121.629 148.682 121.805 148.682 122.018V127.491C148.682 127.606 148.703 127.7 148.744 127.774C148.793 127.848 148.854 127.901 148.928 127.934C149.01 127.966 149.096 127.983 149.186 127.983C149.285 127.983 149.375 127.966 149.457 127.934C149.539 127.893 149.633 127.872 149.74 127.872C149.855 127.872 149.957 127.925 150.047 128.032C150.146 128.139 150.195 128.286 150.195 128.475C150.195 128.704 150.068 128.893 149.814 129.04C149.568 129.188 149.301 129.262 149.014 129.262C148.842 129.262 148.649 129.249 148.436 129.225C148.231 129.192 148.035 129.122 147.846 129.016C147.666 128.901 147.514 128.729 147.391 128.499C147.268 128.27 147.207 127.954 147.207 127.552V122.018C147.207 121.805 147.276 121.629 147.416 121.49C147.563 121.342 147.744 121.268 147.957 121.268ZM157.798 125.978C157.798 126.651 157.647 127.245 157.343 127.761C157.048 128.27 156.647 128.667 156.138 128.954C155.638 129.241 155.077 129.385 154.453 129.385C153.83 129.385 153.265 129.241 152.756 128.954C152.256 128.667 151.855 128.27 151.551 127.761C151.256 127.245 151.109 126.651 151.109 125.978C151.109 125.306 151.256 124.716 151.551 124.207C151.855 123.691 152.256 123.289 152.756 123.002C153.265 122.707 153.83 122.56 154.453 122.56C155.077 122.56 155.638 122.707 156.138 123.002C156.647 123.289 157.048 123.691 157.343 124.207C157.647 124.716 157.798 125.306 157.798 125.978ZM156.323 125.978C156.323 125.56 156.237 125.199 156.064 124.896C155.9 124.585 155.675 124.343 155.388 124.171C155.109 123.998 154.798 123.912 154.453 123.912C154.109 123.912 153.793 123.998 153.507 124.171C153.228 124.343 153.002 124.585 152.83 124.896C152.666 125.199 152.584 125.56 152.584 125.978C152.584 126.388 152.666 126.749 152.83 127.06C153.002 127.364 153.228 127.602 153.507 127.774C153.793 127.946 154.109 128.032 154.453 128.032C154.798 128.032 155.109 127.946 155.388 127.774C155.675 127.602 155.9 127.364 156.064 127.06C156.237 126.749 156.323 126.388 156.323 125.978ZM161.697 122.56C162.041 122.56 162.357 122.613 162.644 122.719C162.931 122.826 163.177 122.961 163.382 123.125C163.595 123.289 163.759 123.457 163.874 123.629C163.997 123.793 164.058 123.933 164.058 124.048L163.738 124.207V123.31C163.738 123.097 163.808 122.92 163.947 122.781C164.087 122.633 164.263 122.56 164.476 122.56C164.689 122.56 164.866 122.629 165.005 122.769C165.144 122.908 165.214 123.088 165.214 123.31V128.782C165.214 129.495 165.058 130.065 164.747 130.491C164.443 130.926 164.042 131.238 163.542 131.426C163.042 131.623 162.505 131.721 161.931 131.721C161.767 131.721 161.554 131.701 161.291 131.66C161.029 131.619 160.779 131.57 160.541 131.512C160.303 131.455 160.123 131.401 160 131.352C159.754 131.246 159.582 131.11 159.483 130.946C159.393 130.791 159.377 130.623 159.434 130.442C159.508 130.205 159.627 130.041 159.791 129.95C159.955 129.868 160.127 129.86 160.307 129.926C160.389 129.95 160.525 130 160.713 130.073C160.902 130.147 161.107 130.213 161.328 130.27C161.558 130.336 161.758 130.368 161.931 130.368C162.546 130.368 163.001 130.246 163.296 130C163.591 129.754 163.738 129.413 163.738 128.979V127.909L163.886 128.02C163.886 128.126 163.829 128.257 163.714 128.413C163.607 128.561 163.456 128.708 163.259 128.856C163.07 129.003 162.845 129.131 162.582 129.237C162.32 129.336 162.041 129.385 161.746 129.385C161.164 129.385 160.639 129.241 160.172 128.954C159.705 128.659 159.336 128.257 159.065 127.749C158.795 127.233 158.66 126.642 158.66 125.978C158.66 125.306 158.795 124.716 159.065 124.207C159.336 123.691 159.701 123.289 160.16 123.002C160.619 122.707 161.131 122.56 161.697 122.56ZM161.931 123.912C161.562 123.912 161.238 124.002 160.959 124.183C160.68 124.363 160.463 124.609 160.307 124.921C160.152 125.232 160.074 125.585 160.074 125.978C160.074 126.364 160.152 126.712 160.307 127.024C160.463 127.335 160.68 127.581 160.959 127.761C161.238 127.942 161.562 128.032 161.931 128.032C162.308 128.032 162.636 127.942 162.914 127.761C163.193 127.581 163.41 127.335 163.566 127.024C163.722 126.712 163.8 126.364 163.8 125.978C163.8 125.585 163.722 125.232 163.566 124.921C163.41 124.609 163.193 124.363 162.914 124.183C162.636 124.002 162.308 123.912 161.931 123.912ZM169.545 129.385C168.848 129.385 168.241 129.241 167.725 128.954C167.216 128.659 166.823 128.262 166.544 127.761C166.274 127.261 166.138 126.696 166.138 126.064C166.138 125.327 166.286 124.699 166.581 124.183C166.884 123.658 167.278 123.256 167.762 122.978C168.245 122.699 168.758 122.56 169.299 122.56C169.717 122.56 170.11 122.646 170.479 122.818C170.857 122.99 171.189 123.228 171.476 123.531C171.762 123.826 171.988 124.171 172.152 124.564C172.324 124.958 172.41 125.376 172.41 125.818C172.402 126.015 172.324 126.175 172.176 126.298C172.029 126.421 171.857 126.482 171.66 126.482H166.962L166.593 125.253H171.107L170.836 125.499V125.167C170.82 124.929 170.734 124.716 170.578 124.527C170.43 124.339 170.242 124.191 170.012 124.084C169.791 123.97 169.553 123.912 169.299 123.912C169.053 123.912 168.823 123.945 168.61 124.011C168.397 124.076 168.213 124.187 168.057 124.343C167.901 124.498 167.778 124.708 167.688 124.97C167.598 125.232 167.553 125.564 167.553 125.966C167.553 126.409 167.643 126.786 167.823 127.097C168.012 127.401 168.249 127.634 168.536 127.798C168.832 127.954 169.143 128.032 169.471 128.032C169.774 128.032 170.016 128.007 170.197 127.958C170.377 127.909 170.52 127.852 170.627 127.786C170.742 127.712 170.844 127.651 170.934 127.602C171.082 127.528 171.221 127.491 171.353 127.491C171.533 127.491 171.68 127.552 171.795 127.675C171.918 127.798 171.98 127.942 171.98 128.106C171.98 128.327 171.865 128.528 171.635 128.708C171.422 128.889 171.123 129.049 170.738 129.188C170.352 129.319 169.955 129.385 169.545 129.385ZM173.65 122.806H176.565C176.762 122.806 176.925 122.871 177.057 123.002C177.188 123.133 177.253 123.297 177.253 123.494C177.253 123.683 177.188 123.843 177.057 123.974C176.925 124.097 176.762 124.158 176.565 124.158H173.65C173.453 124.158 173.29 124.093 173.158 123.961C173.027 123.83 172.962 123.666 172.962 123.47C172.962 123.281 173.027 123.125 173.158 123.002C173.29 122.871 173.453 122.806 173.65 122.806ZM174.966 121.268C175.179 121.268 175.351 121.342 175.483 121.49C175.622 121.629 175.692 121.805 175.692 122.018V127.491C175.692 127.606 175.712 127.7 175.753 127.774C175.802 127.848 175.864 127.901 175.938 127.934C176.02 127.966 176.106 127.983 176.196 127.983C176.294 127.983 176.384 127.966 176.466 127.934C176.548 127.893 176.643 127.872 176.749 127.872C176.864 127.872 176.966 127.925 177.057 128.032C177.155 128.139 177.204 128.286 177.204 128.475C177.204 128.704 177.077 128.893 176.823 129.04C176.577 129.188 176.311 129.262 176.024 129.262C175.852 129.262 175.659 129.249 175.446 129.225C175.241 129.192 175.044 129.122 174.855 129.016C174.675 128.901 174.523 128.729 174.4 128.499C174.277 128.27 174.216 127.954 174.216 127.552V122.018C174.216 121.805 174.286 121.629 174.425 121.49C174.573 121.342 174.753 121.268 174.966 121.268ZM181.941 122.56C182.531 122.56 182.978 122.687 183.281 122.941C183.593 123.195 183.806 123.535 183.921 123.961C184.036 124.38 184.093 124.847 184.093 125.363V128.512C184.093 128.725 184.023 128.905 183.884 129.053C183.745 129.192 183.568 129.262 183.355 129.262C183.142 129.262 182.966 129.192 182.826 129.053C182.687 128.905 182.617 128.725 182.617 128.512V125.363C182.617 125.093 182.585 124.851 182.519 124.638C182.453 124.417 182.335 124.24 182.162 124.109C181.99 123.978 181.744 123.912 181.424 123.912C181.113 123.912 180.847 123.978 180.625 124.109C180.404 124.24 180.236 124.417 180.121 124.638C180.014 124.851 179.961 125.093 179.961 125.363V128.512C179.961 128.725 179.891 128.905 179.752 129.053C179.613 129.192 179.436 129.262 179.223 129.262C179.01 129.262 178.834 129.192 178.694 129.053C178.555 128.905 178.485 128.725 178.485 128.512V120.912C178.485 120.699 178.555 120.522 178.694 120.383C178.834 120.235 179.01 120.162 179.223 120.162C179.436 120.162 179.613 120.235 179.752 120.383C179.891 120.522 179.961 120.699 179.961 120.912V123.961L179.777 123.925C179.85 123.785 179.953 123.638 180.084 123.482C180.215 123.318 180.375 123.166 180.564 123.027C180.752 122.888 180.961 122.777 181.191 122.695C181.42 122.605 181.67 122.56 181.941 122.56ZM188.667 129.385C187.97 129.385 187.363 129.241 186.847 128.954C186.339 128.659 185.945 128.262 185.666 127.761C185.396 127.261 185.261 126.696 185.261 126.064C185.261 125.327 185.408 124.699 185.703 124.183C186.007 123.658 186.4 123.256 186.884 122.978C187.368 122.699 187.88 122.56 188.421 122.56C188.839 122.56 189.233 122.646 189.602 122.818C189.979 122.99 190.311 123.228 190.598 123.531C190.885 123.826 191.11 124.171 191.274 124.564C191.446 124.958 191.532 125.376 191.532 125.818C191.524 126.015 191.446 126.175 191.299 126.298C191.151 126.421 190.979 126.482 190.782 126.482H186.084L185.716 125.253H190.229L189.958 125.499V125.167C189.942 124.929 189.856 124.716 189.7 124.527C189.552 124.339 189.364 124.191 189.134 124.084C188.913 123.97 188.675 123.912 188.421 123.912C188.175 123.912 187.945 123.945 187.732 124.011C187.519 124.076 187.335 124.187 187.179 124.343C187.023 124.498 186.9 124.708 186.81 124.97C186.72 125.232 186.675 125.564 186.675 125.966C186.675 126.409 186.765 126.786 186.945 127.097C187.134 127.401 187.372 127.634 187.659 127.798C187.954 127.954 188.265 128.032 188.593 128.032C188.896 128.032 189.138 128.007 189.319 127.958C189.499 127.909 189.643 127.852 189.749 127.786C189.864 127.712 189.966 127.651 190.057 127.602C190.204 127.528 190.343 127.491 190.475 127.491C190.655 127.491 190.803 127.552 190.917 127.675C191.04 127.798 191.102 127.942 191.102 128.106C191.102 128.327 190.987 128.528 190.758 128.708C190.544 128.889 190.245 129.049 189.86 129.188C189.474 129.319 189.077 129.385 188.667 129.385ZM193.436 129.262C193.223 129.262 193.047 129.192 192.908 129.053C192.768 128.905 192.699 128.725 192.699 128.512V123.433C192.699 123.22 192.768 123.043 192.908 122.904C193.047 122.756 193.223 122.683 193.436 122.683C193.65 122.683 193.826 122.756 193.965 122.904C194.105 123.043 194.174 123.22 194.174 123.433V124.589L194.088 123.765C194.178 123.568 194.293 123.396 194.433 123.248C194.58 123.092 194.744 122.965 194.924 122.867C195.105 122.76 195.297 122.683 195.502 122.633C195.707 122.584 195.912 122.56 196.117 122.56C196.363 122.56 196.568 122.629 196.732 122.769C196.904 122.908 196.99 123.072 196.99 123.261C196.99 123.531 196.921 123.728 196.781 123.851C196.642 123.966 196.49 124.023 196.326 124.023C196.171 124.023 196.027 123.994 195.896 123.937C195.773 123.88 195.63 123.851 195.466 123.851C195.318 123.851 195.166 123.888 195.011 123.961C194.863 124.027 194.724 124.134 194.592 124.281C194.469 124.429 194.367 124.613 194.285 124.835C194.211 125.048 194.174 125.302 194.174 125.597V128.512C194.174 128.725 194.105 128.905 193.965 129.053C193.826 129.192 193.65 129.262 193.436 129.262Z" fill="white"/>
</svg>
