<svg width="83" height="61" viewBox="0 0 83 61" fill="none" xmlns="http://www.w3.org/2000/svg">
<g clip-path="url(#clip0_1_1310)">
<path d="M46.8735 29.5859H43.5234V43.8155H46.8735V29.5859Z" fill="white"/>
<path d="M53.7529 35.8445C53.2242 35.8445 52.7958 35.4207 52.7958 34.9011V31.3277C52.8322 29.9968 54.8104 29.9923 54.8468 31.3277V34.0624H56.5879V32.18C56.4375 28.5702 51.2051 28.5702 51.0547 32.18V35.5118C51.0592 35.7443 51.1367 36.4371 51.8067 36.7515C51.4649 36.9156 51.0547 37.262 51.0547 38.005V41.3003C51.2051 44.9101 56.4375 44.9101 56.5879 41.3003V37.5674H57.7547V35.8445H53.7529ZM53.8259 43.1644C53.2607 43.1644 52.8003 42.7087 52.8003 42.1526V38.5109C52.8003 37.9913 53.2288 37.5674 53.7575 37.5674H54.8514V42.1572C54.8514 42.7132 54.391 43.169 53.8259 43.169" fill="white"/>
<path d="M3.49318 43.8152C3.48863 37.5117 3.08298 28.9475 6.0866 23.9521C6.44667 23.314 6.9845 23.3277 7.34457 23.9703C9.85594 28.3641 10.0519 35.561 9.91064 43.8152H13.3974V37.8216C13.3974 29.5674 10.0064 25.2329 8.04192 23.4143C7.29899 22.726 6.16864 22.7124 5.42115 23.396C-0.267043 28.6968 -0.0118041 36.7779 0.00642733 43.8152H3.49318Z" fill="white"/>
<path d="M21.0969 43.816V33.9756C21.0969 32.3302 22.3549 30.9948 23.9 30.9948C25.4451 30.9948 26.6985 32.3256 26.6985 33.971V43.8205H30.2172V33.9802C30.2172 32.3348 31.4751 30.9993 33.0202 30.9993C34.5653 30.9993 35.8188 32.3302 35.8188 33.9756V43.8251H39.3374V36.1998C39.3693 30.2655 32.4232 27.1525 28.4578 31.5599C24.4879 27.1525 17.5463 30.2701 17.5782 36.1998V43.8251H21.0969V43.816Z" fill="white"/>
<path d="M64.7017 43.8152V27.3522C64.7017 25.7205 65.9597 24.3942 67.5048 24.3942C69.0499 24.3942 70.3033 25.716 70.3033 27.3431V43.8106H73.8265V27.3477C73.8265 25.716 75.0845 24.3896 76.6296 24.3896C78.1747 24.3896 79.4281 25.7114 79.4281 27.3386V43.8061H82.9468V29.54C82.9787 23.6558 76.0371 20.5702 72.0672 24.9366C68.0973 20.5656 61.1557 23.6558 61.1876 29.54V43.8061H64.7063L64.7017 43.8152Z" fill="white"/>
<path d="M7.58425 34.2444C7.092 34.7366 6.29893 34.7366 5.80669 34.2444C5.31444 33.7522 5.31444 32.9591 5.80669 32.4668C6.29893 31.9746 7.092 31.9746 7.58425 32.4668C8.0765 32.9591 8.0765 33.7522 7.58425 34.2444Z" fill="#85B658"/>
<path d="M43.6978 23.5064C44.5137 22.6906 45.84 22.6906 46.6559 23.5064C47.4717 24.3223 47.4717 25.6486 46.6559 26.4645C45.84 27.2803 44.5137 27.2803 43.6978 26.4645C42.882 25.6486 42.882 24.3223 43.6978 23.5064Z" fill="#3F469D"/>
<path d="M48.1568 13.5709C49.1368 12.591 50.7275 12.591 51.7074 13.5709C52.6873 14.5508 52.6873 16.1415 51.7074 17.1215C50.7275 18.1014 49.1368 18.1014 48.1568 17.1215C47.1769 16.1415 47.1769 14.5508 48.1568 13.5709Z" fill="#AB7BA5"/>
<path d="M57.1705 5.35411C58.3145 4.21009 60.1696 4.21009 61.3136 5.35411C62.4576 6.49813 62.4576 8.35318 61.3136 9.4972C60.1696 10.6412 58.3145 10.6412 57.1705 9.4972C56.0265 8.35318 56.0265 6.49813 57.1705 5.35411Z" fill="#DF6580"/>
<path d="M69.7155 0.981078C71.0236 -0.327026 73.143 -0.327026 74.4511 0.981078C75.7592 2.28918 75.7592 4.40858 74.4511 5.71669C73.143 7.02479 71.0236 7.02479 69.7155 5.71669C68.4073 4.40858 68.4073 2.28918 69.7155 0.981078Z" fill="#CB1B3C"/>
<path d="M13.2207 23.5878C12.7011 24.1074 11.8624 24.1074 11.3428 23.5878C10.8232 23.0682 10.8232 22.2296 11.3428 21.71C11.8624 21.1904 12.7011 21.1904 13.2207 21.71C13.7403 22.2296 13.7403 23.0682 13.2207 23.5878Z" fill="#27B462"/>
<path d="M18.8335 16.3487C19.4078 15.7744 20.3331 15.7744 20.9074 16.3487C21.4771 16.923 21.4771 17.8482 20.9074 18.418C20.3331 18.9922 19.4078 18.9922 18.8335 18.418C18.2638 17.8437 18.2638 16.9184 18.8335 16.3487Z" fill="#00B2D4"/>
<path d="M27.8482 14.5591C28.5 13.9074 29.562 13.9074 30.2137 14.5591C30.8655 15.2109 30.8655 16.2729 30.2137 16.9247C29.562 17.5764 28.5 17.5764 27.8482 16.9247C27.1964 16.2729 27.1964 15.2109 27.8482 14.5591Z" fill="#0098D2"/>
<path d="M36.9644 16.8511C37.6982 16.1173 38.8924 16.1173 39.6262 16.8511C40.36 17.585 40.36 18.7791 39.6262 19.5129C38.8924 20.2467 37.6982 20.2467 36.9644 19.5129C36.2306 18.7791 36.2306 17.585 36.9644 16.8511Z" fill="#4189C5"/>
<path d="M54.9628 53.028C55.0585 53.1192 55.1041 53.2377 55.1041 53.3835C55.1041 53.5294 55.0585 53.6479 54.9628 53.7345C54.8671 53.8211 54.744 53.8667 54.5936 53.8667H53.2764V58.3197C53.2764 58.4655 53.2217 58.5886 53.1169 58.6889C53.012 58.7891 52.8799 58.8393 52.7249 58.8393C52.5699 58.8393 52.4378 58.7891 52.3375 58.6889C52.2372 58.5886 52.1871 58.4655 52.1871 58.3197V53.8667H50.8699C50.7194 53.8667 50.5964 53.8211 50.5007 53.7299C50.405 53.6388 50.3594 53.5203 50.3594 53.3744C50.3594 53.2286 50.4095 53.1146 50.5052 53.0235C50.6009 52.9323 50.724 52.8867 50.8699 52.8867H54.5936C54.744 52.8867 54.8671 52.9323 54.9628 53.0235V53.028Z" fill="white"/>
<path d="M58.6546 54.3522C58.7686 54.4479 58.8278 54.5619 58.8278 54.6941C58.8278 54.8718 58.7823 54.9994 58.6957 55.0906C58.6045 55.1772 58.4997 55.2228 58.3766 55.2228C58.2946 55.2228 58.1988 55.2045 58.0895 55.1635C58.0712 55.159 58.0348 55.1453 57.9755 55.1316C57.9163 55.1134 57.8525 55.1043 57.7886 55.1043C57.6428 55.1043 57.5061 55.1499 57.3693 55.241C57.2371 55.3322 57.1232 55.4689 57.0366 55.6512C56.95 55.8335 56.909 56.0569 56.909 56.3121V58.3267C56.909 58.4725 56.8634 58.5956 56.7677 58.6959C56.672 58.7961 56.5535 58.8463 56.4076 58.8463C56.2618 58.8463 56.1433 58.7961 56.0475 58.6959C55.9518 58.5956 55.9062 58.4725 55.9062 58.3267V54.8171C55.9062 54.6713 55.9518 54.5482 56.0475 54.4479C56.1433 54.3477 56.2618 54.2975 56.4076 54.2975C56.5535 54.2975 56.672 54.3477 56.7677 54.4479C56.8634 54.5482 56.909 54.6713 56.909 54.8171V54.9265C57.0366 54.6941 57.2235 54.5163 57.4605 54.3932C57.702 54.2702 57.9573 54.2109 58.2308 54.2109C58.3994 54.2109 58.5407 54.2611 58.6546 54.3568V54.3522Z" fill="white"/>
<path d="M63.5246 54.3535C63.6203 54.4492 63.6659 54.5723 63.6659 54.7273V58.3234C63.6659 58.4693 63.6203 58.5923 63.5246 58.6926C63.4289 58.7929 63.3104 58.843 63.1645 58.843C63.0187 58.843 62.9002 58.7929 62.809 58.6972C62.7179 58.6015 62.6677 58.4784 62.6632 58.3325C62.5219 58.4966 62.335 58.6379 62.098 58.7519C61.861 58.8658 61.6103 58.9251 61.346 58.9251C60.9585 58.9251 60.6121 58.8248 60.2976 58.6242C59.9832 58.4237 59.737 58.1457 59.5547 57.7856C59.3724 57.4301 59.2812 57.0244 59.2812 56.5687C59.2812 56.1129 59.3724 55.7072 59.5502 55.3471C59.7279 54.9871 59.974 54.709 60.284 54.5039C60.5939 54.2988 60.9357 54.2031 61.3095 54.2031C61.5784 54.2031 61.8291 54.2533 62.0615 54.3535C62.2986 54.4538 62.4945 54.5769 62.6586 54.7318V54.7227C62.6586 54.5769 62.7042 54.4538 62.7999 54.3535C62.8956 54.2533 63.0141 54.2031 63.16 54.2031C63.3058 54.2031 63.4243 54.2533 63.5201 54.349L63.5246 54.3535ZM62.3624 57.585C62.5903 57.3161 62.7042 56.9789 62.7042 56.5687C62.7042 56.1584 62.5903 55.8212 62.3624 55.5477C62.1345 55.2742 61.8382 55.1375 61.4736 55.1375C61.1089 55.1375 60.8218 55.2742 60.5939 55.5477C60.366 55.8212 60.2521 56.1584 60.2521 56.5687C60.2521 56.9789 60.366 57.3161 60.5894 57.585C60.8172 57.854 61.1089 57.9907 61.4736 57.9907C61.8382 57.9907 62.1345 57.854 62.3624 57.585Z" fill="white"/>
<path d="M64.7904 53.6472C64.7129 53.5834 64.6719 53.4741 64.6719 53.3145V53.155C64.6719 52.9955 64.7129 52.8861 64.7995 52.8223C64.8815 52.7585 65.0183 52.7266 65.2006 52.7266C65.3966 52.7266 65.5333 52.7585 65.6108 52.8223C65.6883 52.8861 65.7293 52.9955 65.7293 53.155V53.3145C65.7293 53.4786 65.6883 53.5926 65.6062 53.6518C65.5242 53.7111 65.3875 53.743 65.1915 53.743C64.9955 53.743 64.8679 53.7111 64.7904 53.6472ZM65.5607 58.6928C65.4649 58.7931 65.3464 58.8432 65.2006 58.8432C65.0547 58.8432 64.9362 58.7931 64.8405 58.6928C64.7448 58.5925 64.6992 58.4695 64.6992 58.3236V54.8141C64.6992 54.6682 64.7448 54.5451 64.8405 54.4449C64.9362 54.3446 65.0547 54.2945 65.2006 54.2945C65.3464 54.2945 65.4649 54.3446 65.5607 54.4449C65.6564 54.5451 65.7019 54.6682 65.7019 54.8141V58.3236C65.7019 58.4695 65.6564 58.5925 65.5607 58.6928Z" fill="white"/>
<path d="M70.3188 54.7221C70.5376 55.0639 70.647 55.5379 70.647 56.1441V58.3228C70.647 58.4686 70.6014 58.5917 70.5057 58.692C70.4099 58.7922 70.2914 58.8424 70.1456 58.8424C69.9997 58.8424 69.8812 58.7922 69.7855 58.692C69.6898 58.5917 69.6442 58.4686 69.6442 58.3228V56.1441C69.6442 55.8342 69.5804 55.5881 69.4528 55.4103C69.3252 55.2325 69.1018 55.1414 68.7919 55.1414C68.482 55.1414 68.2131 55.2371 68.0308 55.424C67.8484 55.6154 67.7527 55.8524 67.7527 56.1441V58.3228C67.7527 58.4686 67.7071 58.5917 67.6114 58.692C67.5157 58.7922 67.3972 58.8424 67.2514 58.8424C67.1055 58.8424 66.987 58.7922 66.8913 58.692C66.7956 58.5917 66.75 58.4686 66.75 58.3228V54.8132C66.75 54.6674 66.7956 54.5443 66.8913 54.444C66.987 54.3438 67.1055 54.2936 67.2514 54.2936C67.3972 54.2936 67.5157 54.3438 67.6114 54.444C67.7071 54.5443 67.7527 54.6674 67.7527 54.8132V54.9591C67.9031 54.754 68.0991 54.5808 68.3452 54.4304C68.5914 54.28 68.8557 54.207 69.1474 54.207C69.7172 54.207 70.1091 54.3802 70.3279 54.7221H70.3188Z" fill="white"/>
<path d="M71.7669 53.6472C71.6895 53.5834 71.6484 53.4741 71.6484 53.3145V53.155C71.6484 52.9955 71.6895 52.8861 71.7761 52.8223C71.8581 52.7585 71.9948 52.7266 72.1771 52.7266C72.3731 52.7266 72.5099 52.7585 72.5874 52.8223C72.6648 52.8861 72.7059 52.9955 72.7059 53.155V53.3145C72.7059 53.4786 72.6648 53.5926 72.5828 53.6518C72.5008 53.7111 72.364 53.743 72.168 53.743C71.972 53.743 71.8444 53.7111 71.7669 53.6472ZM72.5372 58.6928C72.4415 58.7931 72.323 58.8432 72.1771 58.8432C72.0313 58.8432 71.9128 58.7931 71.8171 58.6928C71.7214 58.5925 71.6758 58.4695 71.6758 58.3236V54.8141C71.6758 54.6682 71.7214 54.5451 71.8171 54.4449C71.9128 54.3446 72.0313 54.2945 72.1771 54.2945C72.323 54.2945 72.4415 54.3446 72.5372 54.4449C72.6329 54.5451 72.6785 54.6682 72.6785 54.8141V58.3236C72.6785 58.4695 72.6329 58.5925 72.5372 58.6928Z" fill="white"/>
<path d="M77.2875 54.7221C77.5063 55.0639 77.6157 55.5379 77.6157 56.1441V58.3228C77.6157 58.4686 77.5701 58.5917 77.4744 58.692C77.3787 58.7922 77.2602 58.8424 77.1143 58.8424C76.9685 58.8424 76.85 58.7922 76.7543 58.692C76.6586 58.5917 76.613 58.4686 76.613 58.3228V56.1441C76.613 55.8342 76.5492 55.5881 76.4216 55.4103C76.2939 55.2325 76.0706 55.1414 75.7607 55.1414C75.4507 55.1414 75.1818 55.2371 74.9995 55.424C74.8172 55.6154 74.7215 55.8524 74.7215 56.1441V58.3228C74.7215 58.4686 74.6759 58.5917 74.5802 58.692C74.4845 58.7922 74.366 58.8424 74.2201 58.8424C74.0743 58.8424 73.9558 58.7922 73.86 58.692C73.7643 58.5917 73.7188 58.4686 73.7188 58.3228V54.8132C73.7188 54.6674 73.7643 54.5443 73.86 54.444C73.9558 54.3438 74.0743 54.2936 74.2201 54.2936C74.366 54.2936 74.4845 54.3438 74.5802 54.444C74.6759 54.5443 74.7215 54.6674 74.7215 54.8132V54.9591C74.8719 54.754 75.0679 54.5808 75.314 54.4304C75.5601 54.28 75.8245 54.207 76.1162 54.207C76.6859 54.207 77.0779 54.3802 77.2967 54.7221H77.2875Z" fill="white"/>
<path d="M82.7818 54.3529C82.8775 54.4486 82.9231 54.5717 82.9231 54.7266V58.5096C82.9231 59.2024 82.7134 59.7129 82.2895 60.0456C81.8656 60.3784 81.3324 60.5424 80.6852 60.5424C80.5165 60.5424 80.2886 60.5151 79.9924 60.4558C79.7007 60.4012 79.491 60.3419 79.3679 60.2872C79.0945 60.1687 78.9577 60.0046 78.9577 59.795C78.9577 59.7539 78.9669 59.7084 78.9851 59.6582C79.017 59.5352 79.0762 59.4394 79.1583 59.3756C79.2403 59.3118 79.3269 59.2799 79.4226 59.2799C79.4773 59.2799 79.532 59.289 79.5822 59.3073C79.605 59.3118 79.7417 59.3665 79.9969 59.4668C80.2522 59.5671 80.4801 59.6172 80.6897 59.6172C81.1045 59.6172 81.4099 59.5352 81.615 59.3665C81.8201 59.1979 81.9203 58.9609 81.9203 58.6555V58.2453C81.7973 58.423 81.6104 58.578 81.3643 58.7193C81.1136 58.8606 80.8493 58.9335 80.5621 58.9335C80.1701 58.9335 79.8146 58.8333 79.4956 58.6327C79.172 58.4322 78.9213 58.1541 78.739 57.7941C78.5567 57.4385 78.4609 57.0329 78.4609 56.5771C78.4609 56.1213 78.5521 55.7157 78.7344 55.3556C78.9167 54.9955 79.1628 54.7175 79.4819 54.5124C79.8009 54.3073 80.1473 54.2116 80.5348 54.2116C80.8219 54.2116 81.0863 54.2708 81.3324 54.3893C81.5785 54.5079 81.7745 54.6537 81.9295 54.8223V54.7266C81.9295 54.5808 81.975 54.4577 82.0708 54.3574C82.1665 54.2572 82.285 54.207 82.4308 54.207C82.5767 54.207 82.6952 54.2572 82.7909 54.3529H82.7818ZM81.6059 57.5844C81.8429 57.3155 81.9614 56.9782 81.9614 56.568C81.9614 56.1578 81.8429 55.8205 81.6059 55.547C81.3688 55.2736 81.0635 55.1368 80.6897 55.1368C80.316 55.1368 80.0106 55.2736 79.7782 55.547C79.5457 55.8205 79.4272 56.1578 79.4272 56.568C79.4272 56.9782 79.5457 57.3155 79.7782 57.5844C80.0152 57.8533 80.316 57.99 80.6897 57.99C81.0635 57.99 81.3688 57.8533 81.6059 57.5844Z" fill="white"/>
</g>
<defs>
<clipPath id="clip0_1_1310">
<rect width="82.9483" height="60.5419" fill="white"/>
</clipPath>
</defs>
</svg>
